<?xml version="1.0" encoding="utf-8"?>
<!-- Uploaded to: SVG Repo, www.svgrepo.com, Generator: SVG Repo Mixer Tools -->
<svg width="800px" height="800px" viewBox="0 -181.5 1387 1387" class="icon"  version="1.1" xmlns="http://www.w3.org/2000/svg"><path d="M619.429161 232.192c-19.208258-11.098839-48.317935-12.304516-64.957935-2.700387L11.784258 542.819097c-16.64 9.604129-14.55071 26.40929 4.657548 37.499871l750.08 433.061161c19.216516 11.090581 48.326194 12.304516 64.966194 2.692129l542.686968-313.319226c16.64-9.604129 14.55071-26.40929-4.665807-37.508129l-750.08-433.052903z" fill="#4762AF" /><path d="M590.955355 781.60929c9.133419 5.276903 16.557419 18.126452 16.557419 28.680258s-7.424 14.839742-16.557419 9.562839c-9.141677-5.276903-16.557419-18.126452-16.55742-28.680258s7.415742-14.839742 16.55742-9.562839zM657.292387 819.910194c9.133419 5.276903 16.557419 18.126452 16.557419 28.680258s-7.424 14.831484-16.557419 9.55458c-9.141677-5.268645-16.557419-18.126452-16.557419-28.672 0-10.553806 7.415742-14.839742 16.557419-9.562838zM723.621161 858.211097c9.141677 5.276903 16.557419 18.126452 16.55742 28.680258 0 10.545548-7.415742 14.831484-16.55742 9.55458-9.133419-5.276903-16.557419-18.126452-16.557419-28.680258 0-10.545548 7.424-14.831484 16.557419-9.55458z" fill="#448FFF" /><path d="M0.685419 337.308903s-1.684645 224.867097 0.231226 224.561549c1.907613-0.29729 92.71329 46.798452 92.71329 46.798451l92.614194-93.208774 5.722839-66.915097L0.685419 337.308903zM1385.405935 463.459097v222.934709l-140.395354 81.655742-72.357162-171.957677 212.752516-132.632774z" fill="#4762AF" /><path d="M619.429161 9.17471C600.220903-1.915871 571.111226-3.121548 554.471226 6.482581L11.784258 319.801806c-16.64 9.612387-14.55071 26.417548 4.657548 37.508129l750.08 433.061162c19.216516 11.090581 48.326194 12.296258 64.966194 2.692129l542.686968-313.319226c16.64-9.612387 14.55071-26.417548-4.665807-37.508129L619.429161 9.17471zM451.014194 719.938065c0-10.553806-6.424774-22.833548-14.336-27.400259L73.059097 482.609548c-7.911226-4.574968-14.336 0.289032-14.336 10.834581 0 10.553806 6.424774 22.833548 14.336 27.400258l363.619097 209.936516c7.911226 4.56671 14.336-0.289032 14.336-10.842838z" fill="#6D8ACA" /></svg>