<?xml version="1.0" encoding="utf-8"?>
<!-- Uploaded to: SVG Repo, www.svgrepo.com, Generator: SVG Repo Mixer Tools -->
<svg width="800px" height="800px" viewBox="0 0 1024 1024" class="icon"  version="1.1" xmlns="http://www.w3.org/2000/svg"><path d="M457.842447 447.096471c-14.010729-8.095624-35.243671-8.975059-47.381082-1.969695L14.619106 673.671529c-12.137412 7.005365-10.613459 19.263247 3.39727 27.352847l547.117177 315.879906c14.016753 8.0896 35.249694 8.969035 47.387106 1.963671l395.842259-228.538729c12.137412-7.005365 10.613459-19.263247-3.403294-27.358871l-547.117177-315.873882z" fill="#4762AF" /><path d="M437.073318 847.847906c6.662024 3.849035 12.077176 13.221647 12.077176 20.919718s-5.415153 10.824282-12.077176 6.975247c-6.668047-3.849035-12.077176-13.221647-12.077177-20.919718s5.409129-10.824282 12.077177-6.975247zM485.460329 875.785035c6.662024 3.849035 12.077176 13.221647 12.077177 20.919718s-5.415153 10.818259-12.077177 6.969223c-6.668047-3.843012-12.077176-13.221647-12.077176-20.913694 0-7.698071 5.409129-10.824282 12.077176-6.975247zM533.841318 903.722165c6.668047 3.849035 12.077176 13.221647 12.077176 20.919717 0 7.692047-5.409129 10.818259-12.077176 6.969224-6.662024-3.849035-12.077176-13.221647-12.077177-20.919718 0-7.692047 5.415153-10.818259 12.077177-6.969223z" fill="#448FFF" /><path d="M6.523482 523.769976s-1.2288 164.020706 0.168659 163.797836c1.391435-0.216847 67.626165 34.135341 67.626165 34.135341l67.553882-67.987577 4.174306-48.808658L6.523482 523.769976zM1016.554918 615.785412v162.6112l-102.406024 59.560659-52.778165-125.427953 155.184189-96.743906z" fill="#4762AF" /><path d="M457.842447 284.425035c-14.010729-8.0896-35.243671-8.969035-47.381082-1.96367L14.619106 511.000094c-12.137412 7.011388-10.613459 19.269271 3.39727 27.358871l547.117177 315.879906c14.016753 8.0896 35.249694 8.969035 47.387106 1.96367l395.842259-228.538729c12.137412-7.011388 10.613459-19.269271-3.403294-27.358871l-547.117177-315.879906z" fill="#6D8ACA" /><path d="M511.289224 775.553506s62.211012 44.483765 99.65327 23.798965c37.442259-20.690824 367.652141-214.268988 367.652141-214.268989l-0.301176-56.518776-467.004235 179.519247v67.469553z" fill="#5D7BC1" /><path d="M112.688188 477.948988v67.469553l398.799812 230.249412v-67.469553L112.688188 477.948988z" fill="#5D7BC1" /><path d="M334.998588 802.864188c0-7.698071-4.686306-16.655059-10.456847-19.98607L59.313694 629.753976c-5.770541-3.337035-10.456847 0.2048-10.456847 7.902871s4.686306 16.655059 10.456847 19.986071L324.541741 810.767059c5.770541 3.337035 10.456847-0.2048 10.456847-7.902871z" fill="#6D8ACA" /><path d="M457.842447 447.096471c-14.010729-8.095624-35.243671-8.975059-47.381082-1.969695L14.619106 673.671529c-12.137412 7.005365-10.613459 19.263247 3.39727 27.352847l547.117177 315.879906c14.016753 8.0896 35.249694 8.969035 47.387106 1.963671l395.842259-228.538729c12.137412-7.005365 10.613459-19.263247-3.403294-27.358871l-547.117177-315.873882z" fill="#4762AF" /><path d="M437.073318 847.847906c6.662024 3.849035 12.077176 13.221647 12.077176 20.919718s-5.415153 10.824282-12.077176 6.975247c-6.668047-3.849035-12.077176-13.221647-12.077177-20.919718s5.409129-10.824282 12.077177-6.975247zM485.460329 875.785035c6.662024 3.849035 12.077176 13.221647 12.077177 20.919718s-5.415153 10.818259-12.077177 6.969223c-6.668047-3.843012-12.077176-13.221647-12.077176-20.913694 0-7.698071 5.409129-10.824282 12.077176-6.975247zM533.841318 903.722165c6.668047 3.849035 12.077176 13.221647 12.077176 20.919717 0 7.692047-5.409129 10.818259-12.077176 6.969224-6.662024-3.849035-12.077176-13.221647-12.077177-20.919718 0-7.692047 5.415153-10.818259 12.077177-6.969223z" fill="#448FFF" /><path d="M6.523482 523.769976s-1.2288 164.020706 0.168659 163.797836c1.391435-0.216847 67.626165 34.135341 67.626165 34.135341l67.553882-67.987577 4.174306-48.808658L6.523482 523.769976zM1016.554918 615.785412v162.6112l-102.406024 59.560659-52.778165-125.427953 155.184189-96.743906z" fill="#4762AF" /><path d="M457.842447 284.425035c-14.010729-8.0896-35.243671-8.969035-47.381082-1.96367L14.619106 511.000094c-12.137412 7.011388-10.613459 19.269271 3.39727 27.358871l547.117177 315.879906c14.016753 8.0896 35.249694 8.969035 47.387106 1.96367l395.842259-228.538729c12.137412-7.011388 10.613459-19.269271-3.403294-27.358871l-547.117177-315.879906z" fill="#6D8ACA" /><path d="M511.289224 775.553506s62.211012 44.483765 99.65327 23.798965c37.442259-20.690824 367.652141-214.268988 367.652141-214.268989l-0.301176-56.518776-467.004235 179.519247v67.469553z" fill="#5D7BC1" /><path d="M112.688188 477.948988v67.469553l398.799812 230.249412v-67.469553L112.688188 477.948988z" fill="#5D7BC1" /><path d="M334.998588 802.864188c0-7.698071-4.686306-16.655059-10.456847-19.98607L59.313694 629.753976c-5.770541-3.337035-10.456847 0.2048-10.456847 7.902871s4.686306 16.655059 10.456847 19.986071L324.541741 810.767059c5.770541 3.337035 10.456847-0.2048 10.456847-7.902871z" fill="#6D8ACA" /><path d="M457.842447 169.363576c-14.010729-8.095624-35.243671-8.975059-47.381082-1.969694L14.619106 395.938635c-12.137412 7.005365-10.613459 19.263247 3.39727 27.352847l547.117177 315.879906c14.016753 8.0896 35.249694 8.975059 47.387106 1.963671l395.842259-228.53873c12.137412-7.005365 10.613459-19.263247-3.403294-27.35887l-547.117177-315.873883z" fill="#4762AF" /><path d="M437.073318 570.115012c6.662024 3.849035 12.077176 13.221647 12.077176 20.919717s-5.415153 10.824282-12.077176 6.975247c-6.668047-3.849035-12.077176-13.221647-12.077177-20.919717s5.409129-10.824282 12.077177-6.975247zM485.460329 598.052141c6.662024 3.849035 12.077176 13.221647 12.077177 20.919718s-5.415153 10.818259-12.077177 6.969223c-6.668047-3.843012-12.077176-13.221647-12.077176-20.913694 0-7.698071 5.409129-10.824282 12.077176-6.975247zM533.841318 625.989271c6.668047 3.849035 12.077176 13.221647 12.077176 20.919717 0 7.692047-5.409129 10.818259-12.077176 6.969224-6.662024-3.849035-12.077176-13.221647-12.077177-20.919718 0-7.692047 5.415153-10.818259 12.077177-6.969223z" fill="#448FFF" /><path d="M6.523482 246.037082s-1.2288 164.020706 0.168659 163.797836c1.391435-0.216847 67.626165 34.135341 67.626165 34.135341l67.553882-67.987577 4.174306-48.808658L6.523482 246.037082zM1016.554918 338.052518v162.6112l-102.406024 59.560658-52.778165-125.427952 155.184189-96.743906z" fill="#4762AF" /><path d="M457.842447 6.692141C443.831718-1.397459 422.598776-2.276894 410.461365 4.728471L14.619106 233.2672c-12.137412 7.011388-10.613459 19.269271 3.39727 27.358871l547.117177 315.879905c14.016753 8.0896 35.249694 8.969035 47.387106 1.963671l395.842259-228.538729c12.137412-7.011388 10.613459-19.269271-3.403294-27.358871L457.842447 6.692141zM334.998588 525.131294c0-7.698071-4.686306-16.655059-10.456847-19.98607L59.313694 352.021082c-5.770541-3.337035-10.456847 0.210824-10.456847 7.902871 0 7.698071 4.686306 16.655059 10.456847 19.986071l265.228047 153.130164c5.770541 3.331012 10.456847-0.210824 10.456847-7.908894z" fill="#6D8ACA" /></svg>