<?xml version="1.0" encoding="utf-8"?>
<!-- Uploaded to: SVG Repo, www.svgrepo.com, Generator: SVG Repo Mixer Tools -->
<svg width="800px" height="800px" viewBox="0 0 1024 1024" class="icon"  version="1.1" xmlns="http://www.w3.org/2000/svg"><path d="M469.572424 567.833954c-10.976147-6.337475-27.610249-7.026433-37.11882-1.53836L122.346765 745.339871c-9.508571 5.488074-8.314691 15.091023 2.661456 21.428498l428.617143 247.46352c10.980866 6.337475 27.614968 7.026433 37.123539 1.53836l310.106839-179.039558c9.508571-5.488074 8.314691-15.091023-2.666175-21.433216l-428.617143-247.463521z" fill="#4762AF" /><path d="M453.301677 881.79141c5.219097 3.015373 9.461382 10.357972 9.461383 16.388719s-4.242286 8.479853-9.461383 5.464479c-5.223816-3.015373-9.461382-10.357972-9.461382-16.388719s4.237567-8.479853 9.461382-5.464479zM491.208553 903.677641c5.219097 3.015373 9.461382 10.357972 9.461382 16.388718s-4.242286 8.475134-9.461382 5.459761c-5.223816-3.010654-9.461382-10.357972-9.461382-16.384 0-6.030747 4.237567-8.479853 9.461382-5.464479zM529.11071 925.563871c5.223816 3.015373 9.461382 10.357972 9.461382 16.388719 0 6.026028-4.237567 8.475134-9.461382 5.45976-5.219097-3.015373-9.461382-10.357972-9.461383-16.388719 0-6.026028 4.242286-8.475134 9.461383-5.45976z" fill="#448FFF" /><path d="M116.004571 627.905475s-0.962654 128.495484 0.132129 128.320884c1.090065-0.16988 52.979023 26.741972 52.979024 26.741973l52.922396-53.262157 3.270193-38.237198-109.303742-63.563502zM907.273438 699.986581v127.395981l-80.225917 46.660424-41.34695-98.26153 121.572867-75.794875z" fill="#4762AF" /><path d="M469.572424 440.400221c-10.976147-6.337475-27.610249-7.026433-37.11882-1.538359L122.346765 617.901419c-9.508571 5.492793-8.314691 15.095742 2.661456 21.433217l428.617143 247.463521c10.980866 6.337475 27.614968 7.026433 37.123539 1.538359l310.106839-179.039557c9.508571-5.492793 8.314691-15.095742-2.666175-21.433217l-428.617143-247.463521z" fill="#6D8ACA" /><path d="M511.443171 825.155244s48.736737 34.849032 78.069382 18.64435c29.332645-16.209401 288.022415-167.860498 288.022415-167.860497l-0.235945-44.277383-365.855852 140.637198v52.856332z" fill="#5D7BC1" /><path d="M199.175078 592.008848v52.856332l312.423816 180.379723V772.388571l-312.423816-180.379723z" fill="#5D7BC1" /><path d="M373.3353 846.55071c0-6.030747-3.6713-13.047742-8.192-15.657291L157.360959 710.934415c-4.5207-2.614267-8.192 0.160442-8.192 6.191189s3.6713 13.047742 8.192 15.65729l207.782341 119.959005c4.5207 2.614267 8.192-0.160442 8.192-6.191189z" fill="#6D8ACA" /><path d="M469.572424 567.833954c-10.976147-6.337475-27.610249-7.026433-37.11882-1.53836L122.346765 745.339871c-9.508571 5.488074-8.314691 15.091023 2.661456 21.428498l428.617143 247.46352c10.980866 6.337475 27.614968 7.026433 37.123539 1.53836l310.106839-179.039558c9.508571-5.488074 8.314691-15.091023-2.666175-21.433216l-428.617143-247.463521z" fill="#4762AF" /><path d="M453.301677 881.79141c5.219097 3.015373 9.461382 10.357972 9.461383 16.388719s-4.242286 8.479853-9.461383 5.464479c-5.223816-3.015373-9.461382-10.357972-9.461382-16.388719s4.237567-8.479853 9.461382-5.464479zM491.208553 903.677641c5.219097 3.015373 9.461382 10.357972 9.461382 16.388718s-4.242286 8.475134-9.461382 5.459761c-5.223816-3.010654-9.461382-10.357972-9.461382-16.384 0-6.030747 4.237567-8.479853 9.461382-5.464479zM529.11071 925.563871c5.223816 3.015373 9.461382 10.357972 9.461382 16.388719 0 6.026028-4.237567 8.475134-9.461382 5.45976-5.219097-3.015373-9.461382-10.357972-9.461383-16.388719 0-6.026028 4.242286-8.475134 9.461383-5.45976z" fill="#448FFF" /><path d="M116.004571 627.905475s-0.962654 128.495484 0.132129 128.320884c1.090065-0.16988 52.979023 26.741972 52.979024 26.741973l52.922396-53.262157 3.270193-38.237198-109.303742-63.563502zM907.273438 699.986581v127.395981l-80.225917 46.660424-41.34695-98.26153 121.572867-75.794875z" fill="#4762AF" /><path d="M469.572424 440.400221c-10.976147-6.337475-27.610249-7.026433-37.11882-1.538359L122.346765 617.901419c-9.508571 5.492793-8.314691 15.095742 2.661456 21.433217l428.617143 247.463521c10.980866 6.337475 27.614968 7.026433 37.123539 1.538359l310.106839-179.039557c9.508571-5.492793 8.314691-15.095742-2.666175-21.433217l-428.617143-247.463521z" fill="#6D8ACA" /><path d="M511.443171 825.155244s48.736737 34.849032 78.069382 18.64435c29.332645-16.209401 288.022415-167.860498 288.022415-167.860497l-0.235945-44.277383-365.855852 140.637198v52.856332z" fill="#5D7BC1" /><path d="M199.175078 592.008848v52.856332l312.423816 180.379723V772.388571l-312.423816-180.379723z" fill="#5D7BC1" /><path d="M373.3353 846.55071c0-6.030747-3.6713-13.047742-8.192-15.657291L157.360959 710.934415c-4.5207-2.614267-8.192 0.160442-8.192 6.191189s3.6713 13.047742 8.192 15.65729l207.782341 119.959005c4.5207 2.614267 8.192-0.160442 8.192-6.191189z" fill="#6D8ACA" /><path d="M469.572424 350.259908c-10.976147-6.342194-27.610249-7.031152-37.11882-1.543079L122.346765 527.761106c-9.508571 5.488074-8.314691 15.091023 2.661456 21.428498l428.617143 247.46352c10.980866 6.337475 27.614968 7.026433 37.123539 1.53836l310.106839-179.039558c9.508571-5.488074 8.314691-15.091023-2.666175-21.433216l-428.617143-247.458802z" fill="#4762AF" /><path d="M453.301677 664.212645c5.219097 3.015373 9.461382 10.357972 9.461383 16.388719s-4.242286 8.479853-9.461383 5.464479c-5.223816-3.015373-9.461382-10.357972-9.461382-16.388719s4.237567-8.479853 9.461382-5.464479zM491.208553 686.098876c5.219097 3.015373 9.461382 10.357972 9.461382 16.388718s-4.242286 8.475134-9.461382 5.459761c-5.223816-3.010654-9.461382-10.357972-9.461382-16.384 0-6.030747 4.237567-8.479853 9.461382-5.464479zM529.11071 707.985106c5.223816 3.015373 9.461382 10.357972 9.461382 16.388719 0 6.026028-4.237567 8.475134-9.461382 5.45976-5.219097-3.015373-9.461382-10.357972-9.461383-16.388719 0-6.026028 4.242286-8.475134 9.461383-5.45976z" fill="#448FFF" /><path d="M116.004571 410.32671s-0.962654 128.495484 0.132129 128.320884c1.090065-0.16988 52.979023 26.741972 52.979024 26.741973l52.922396-53.262157 3.270193-38.237198L116.004571 410.32671zM907.273438 482.412535v127.391262l-80.225917 46.660424-41.34695-98.26153 121.572867-75.790156z" fill="#4762AF" /><path d="M469.572424 222.821456c-10.976147-6.337475-27.610249-7.026433-37.11882-1.538359L122.346765 400.322654c-9.508571 5.492793-8.314691 15.095742 2.661456 21.433217l428.617143 247.463521c10.980866 6.337475 27.614968 7.026433 37.123539 1.538359l310.106839-179.039557c9.508571-5.492793 8.314691-15.095742-2.666175-21.433217l-428.617143-247.463521zM373.3353 628.971945c0-6.030747-3.6713-13.047742-8.192-15.657291L157.360959 493.35565c-4.5207-2.614267-8.192 0.160442-8.192 6.191189s3.6713 13.047742 8.192 15.65729L365.1433 635.163134c4.5207 2.614267 8.192-0.160442 8.192-6.191189z" fill="#6D8ACA" /><path d="M511.443171 607.897364s48.736737 34.853751 78.069382 18.64435c29.332645-16.204682 288.022415-167.860498 288.022415-167.860497l-0.235945-44.277383-365.855852 140.641917v52.851613z" fill="#5D7BC1" /><path d="M199.175078 374.755687v52.856331l312.423816 180.379724v-52.856332L199.175078 374.755687z" fill="#5D7BC1" /><path d="M469.572424 132.681143c-10.976147-6.342194-27.610249-7.031152-37.11882-1.543078L122.346765 310.182341c-9.508571 5.488074-8.314691 15.091023 2.661456 21.428498l428.617143 247.46352c10.980866 6.337475 27.614968 7.031152 37.123539 1.53836l310.106839-179.039558c9.508571-5.488074 8.314691-15.091023-2.666175-21.433216l-428.617143-247.458802z" fill="#4762AF" /><path d="M453.301677 446.63388c5.219097 3.015373 9.461382 10.357972 9.461383 16.388719s-4.242286 8.479853-9.461383 5.464479c-5.223816-3.015373-9.461382-10.357972-9.461382-16.388719s4.237567-8.479853 9.461382-5.464479zM491.208553 468.520111c5.219097 3.015373 9.461382 10.357972 9.461382 16.388718s-4.242286 8.475134-9.461382 5.459761c-5.223816-3.010654-9.461382-10.357972-9.461382-16.384 0-6.030747 4.237567-8.479853 9.461382-5.464479zM529.11071 490.406341c5.223816 3.015373 9.461382 10.357972 9.461382 16.388719 0 6.026028-4.237567 8.475134-9.461382 5.45976-5.219097-3.015373-9.461382-10.357972-9.461383-16.388719 0-6.026028 4.242286-8.475134 9.461383-5.45976z" fill="#448FFF" /><path d="M116.004571 192.747945s-0.962654 128.495484 0.132129 128.320884c1.090065-0.16988 52.979023 26.741972 52.979024 26.741973l52.922396-53.262157 3.270193-38.237198L116.004571 192.747945zM907.273438 264.83377v127.391262l-80.225917 46.660424-41.34695-98.26153 121.572867-75.790156z" fill="#4762AF" /><path d="M469.572424 5.242691C458.596276-1.094783 441.962175-1.783742 432.453604 3.704332L122.346765 182.743889c-9.508571 5.492793-8.314691 15.095742 2.661456 21.433217l428.617143 247.463521c10.980866 6.337475 27.614968 7.026433 37.123539 1.538359l310.106839-179.039557c9.508571-5.492793 8.314691-15.095742-2.666175-21.433217L469.572424 5.242691zM373.3353 411.39318c0-6.030747-3.6713-13.047742-8.192-15.657291L157.360959 275.776885c-4.5207-2.614267-8.192 0.165161-8.192 6.191189 0 6.030747 3.6713 13.047742 8.192 15.65729l207.782341 119.963724c4.5207 2.609548 8.192-0.165161 8.192-6.195908z" fill="#6D8ACA" /></svg>