<?xml version="1.0" encoding="utf-8"?>
<!-- Uploaded to: SVG Repo, www.svgrepo.com, Generator: SVG Repo Mixer Tools -->
<svg width="800px" height="800px" viewBox="0 0 1024 1024" class="icon"  version="1.1" xmlns="http://www.w3.org/2000/svg"><path d="M317.397853 153.017629c65.911791 38.052669 119.423687 130.740466 119.423687 206.847915 0 76.10956-53.511895 107.004789-119.423687 68.950009-65.911791-38.05478-119.423687-130.740466-119.423686-206.850026 0-76.107449 53.511895-107.002678 119.423686-68.947898zM770.252694 341.308983c83.872955 48.423568 151.967871 166.367206 151.967871 263.216452 0 96.849247-68.094916 136.164496-151.967871 87.740929-83.875066-48.425679-151.969983-166.369317-151.969983-263.218564 0-96.849247 68.094916-136.164496 151.969983-87.738817z" fill="#6D8ACA" /><path d="M409.010979 73.470808c50.562354 29.191378 91.613125 100.292841 91.613125 158.677708s-41.050771 82.084651-91.613125 52.893273c-50.562354-29.193489-91.613125-100.294952-91.613126-158.679819 0-58.384867 41.050771-82.084651 91.613126-52.891162z" fill="#6D8ACA" /><path d="M618.282711 24.445509c98.907803 57.105395 179.210483 196.189874 179.210483 310.398553 0 114.21079-80.30268 160.571579-179.210483 103.466184-98.907803-57.103284-179.208371-196.189874-179.208372-310.398553 0-114.208679 80.300569-160.571579 179.208372-103.466184z" fill="#6D8ACA" /><path d="M797.493194 430.19848L317.397853 153.017629v275.797924l480.095341 277.182962V430.19848z" fill="#6D8ACA" /><path d="M884.146783 652.657638l-96.629668 55.787919v46.014529l96.629668-55.787919V652.657638zM494.275306 10.383989l-101.886902 58.824025v26.887907l101.886902-58.824025V10.383989zM347.611119 65.321039L247.613866 123.055613v62.778564l99.997253-57.734575V65.321039zM231.945617 145.792626L140.277597 198.717569v42.934086l91.66802-52.924944V145.792626z" fill="#6D8ACA" /><path d="M220.768186 208.805549c65.911791 38.05478 119.425798 130.740466 119.425798 206.850026 0 76.107449-53.514007 107.002678-119.425798 68.947897C154.856395 446.550803 101.344499 353.865118 101.344499 277.755557s53.511895-107.004789 119.423687-68.950008zM673.623026 397.096902c83.872955 48.425679 151.967871 166.369317 151.967871 263.218563 0 96.849247-68.094916 136.164496-151.967871 87.738818-83.875066-48.423568-151.969983-166.367206-151.969983-263.216452 0-96.849247 68.094916-136.164496 151.969983-87.740929z" fill="#4762AF" /><path d="M312.381311 129.258728c50.564466 29.191378 91.613125 100.294952 91.613125 158.679819 0 58.384867-41.048659 82.084651-91.613125 52.891162-50.562354-29.191378-91.613125-100.292841-91.613125-158.677708s41.050771-82.084651 91.613125-52.893273z" fill="#4762AF" /><path d="M521.653043 80.23554c98.909914 57.103284 179.210483 196.189874 179.210483 310.398552 0 114.208679-80.300569 160.571579-179.210483 103.466184-98.907803-57.105395-179.208371-196.189874-179.208371-310.398552 0-114.21079 80.300569-160.571579 179.208371-103.466184z" fill="#4762AF" /><path d="M700.863526 485.988511L220.768186 208.805549v275.797923l480.09534 277.182962V485.988511z" fill="#4762AF" /><path d="M489.317882 670.815156c0-8.360904-5.090439-18.087844-11.361117-21.708791l-90.897382-52.479451c-6.270678-3.620947-11.363228 0.228025-11.363228 8.588929v229.709497c0 8.360904 5.09255 18.089955 11.363228 21.708791l90.897382 52.47945c6.270678 3.620947 11.361117-0.228025 11.361117-8.588928V670.815156z" fill="#6D8ACA" /><path d="M432.508074 994.004202c-4.406365-0.673517-6.319239-3.110003-12.955178-13.578023l-107.807098-170.049382c-4.847635-7.647271-4.913087-17.380545 10.611592-8.415798l222.693516 128.57212c6.078546 3.509046 10.271666 6.302348 10.423682 9.277225 0.152016 2.974877-3.734959 6.129218-9.507361 8.569926l-94.579557 39.973988c-12.570914 5.314241-13.402782 6.490257-18.879596 5.649944z" fill="#6D8ACA" /><path d="M335.420246 621.553387l-5.641499 3.255685 4.419034 2.552609 5.641498-3.257797-4.419033-2.550497zM379.224203 596.301768l-6.688723 3.86164 4.385252 2.531496 6.688723-3.859529-4.385252-2.533607zM310.238302 799.009346l-49.116087 28.35951 65.8949 38.044224 49.118199-28.357399-65.897012-38.046335z" fill="#6D8ACA" /><path d="M440.184904 699.183111c0-8.363015-5.090439-18.089955-11.361117-21.710902l-90.897381-52.479451c-6.270678-3.618836-11.361117 0.230136-11.361117 8.59104v229.709497c0 8.360904 5.090439 18.087844 11.361117 21.708791l90.897381 52.479451c6.270678 3.620947 11.361117-0.228025 11.361117-8.588929V699.183111z" fill="#4762AF" /><path d="M527.159416 925.123868l-55.606344 32.105026 29.826891 17.220083 49.147757-28.374289c3.563941-2.058556 3.116337-5.658389-0.998663-8.033646l-22.369641-12.917174z" fill="#6D8ACA" /><path d="M383.375096 1022.372157c-4.406365-0.675629-6.319239-3.110003-12.955178-13.580134l-107.807098-170.04727c-4.847635-7.647271-4.913087-17.380545 10.611592-8.41791l222.693516 128.57212c6.078546 3.511157 10.271666 6.304459 10.423683 9.279336 0.152016 2.974877-3.734959 6.129218-9.507361 8.569927l-94.579557 39.973987c-12.570914 5.31213-13.402782 6.488146-18.879597 5.649944z" fill="#4762AF" /><path d="M393.488412 600.980496c-6.192558-3.574497-15.573239-3.962984-20.93393-0.86776l-38.861312 22.437203 98.969032 57.139176 48.575584-28.04492-87.749374-50.663699zM449.582475 414.388771c0-11.126758-6.775288-24.073491-15.121412-28.891567-8.346124-4.820188-15.121412 0.304033-15.121412 11.430791v153.483813c0 11.12887 6.775288 24.073491 15.121412 28.893678 8.346124 4.818076 15.121412-0.304033 15.121412-11.432902v-153.483813z" fill="#6D8ACA" /><path d="M416.757483 389.730439c6.190447-3.572386 15.421223-4.045326 20.602449-1.053558 5.181227 2.991768 4.362027 8.320788-1.826309 11.893174-6.190447 3.574497-15.421223 4.047438-20.602449 1.05567-5.181227-2.991768-4.362027-8.320788 1.826309-11.895286z" fill="#6D8ACA" /><path d="M424.890362 384.528099l-15.332547 8.850734 8.930966 5.158002 15.332546-8.852846-8.930965-5.15589zM435.879883 574.677431l-15.366328 8.871848 8.930966 5.15589 15.366327-8.871848-8.930965-5.15589z" fill="#6D8ACA" /><path d="M434.461063 423.119159c0-11.126758-6.775288-24.073491-15.121412-28.891567s-15.123524 0.304033-15.123524 11.430791v153.483813c0 11.12887 6.777399 24.075602 15.123524 28.893679 8.346124 4.818076 15.121412-0.304033 15.121412-11.432903v-153.483813z" fill="#FFFFFF" /><path d="M378.960286 453.596342c0-9.215996-6.775288-18.888042-15.121413-21.584222-8.346124-2.69618-15.121412 2.599059-15.121412 11.815055v75.041223c0 9.215996 6.775288 18.888042 15.121412 21.584222 8.346124 2.69618 15.121412-2.596947 15.121413-11.815055v-75.041223z" fill="#6D8ACA" /><path d="M347.241635 435.364927c5.656278-1.82842 13.989734-2.102894 18.598788-0.612288 4.609054 1.488494 3.758184 4.180452-1.895983 6.00676-5.656278 1.826309-13.989734 2.100783-18.598788 0.612289-4.606942-1.488494-3.758184-4.180452 1.895983-6.006761z" fill="#6D8ACA" /><path d="M355.944576 432.01212l-15.332547 4.953202 7.256674 2.343587 15.332546-4.953202-7.256673-2.343587zM365.257694 537.864118l-15.366328 4.963759 7.288343 2.354143 15.366328-4.963759-7.288343-2.354143z" fill="#6D8ACA" /><path d="M363.838873 458.481982c0-9.215996-6.775288-18.888042-15.121412-21.584222-8.346124-2.69618-15.121412 2.596947-15.121412 11.815055v75.041222c0 9.215996 6.775288 18.888042 15.121412 21.584222 8.346124 2.69618 15.121412-2.599059 15.121412-11.815055v-75.041222z" fill="#FFFFFF" /><path d="M520.202553 535.142602c0-9.215996-6.775288-18.888042-15.121412-21.584222-8.346124-2.69618-15.121412 2.599059-15.121412 11.815054v75.041223c0 9.215996 6.775288 18.888042 15.121412 21.584222 8.346124 2.69618 15.121412-2.596947 15.121412-11.815055v-75.041222z" fill="#6D8ACA" /><path d="M488.483902 516.911186c5.656278-1.82842 13.989734-2.102894 18.598789-0.612288 4.609054 1.488494 3.758184 4.180452-1.895983 6.00676-5.656278 1.826309-13.987623 2.100783-18.596677 0.612289-4.609054-1.488494-3.760295-4.180452 1.893871-6.006761z" fill="#6D8ACA" /><path d="M497.186843 513.55838l-15.332546 4.953202 7.256673 2.343586 15.332547-4.953202-7.256674-2.343586zM506.499961 619.410377l-15.366328 4.963759 7.288344 2.354143 15.366327-4.963758-7.288343-2.354144z" fill="#6D8ACA" /><path d="M505.081141 540.028241c0-9.215996-6.775288-18.888042-15.121412-21.584222-8.346124-2.69618-15.121412 2.596947-15.121413 11.815055v75.041222c0 9.215996 6.775288 18.888042 15.121413 21.584222 8.346124 2.69618 15.121412-2.599059 15.121412-11.815055v-75.041222z" fill="#FFFFFF" /></svg>