<?xml version="1.0" encoding="utf-8"?>
<!-- Uploaded to: SVG Repo, www.svgrepo.com, Generator: SVG Repo Mixer Tools -->
<svg width="800px" height="800px" viewBox="0 -32 1088 1088" class="icon"  version="1.1" xmlns="http://www.w3.org/2000/svg"><path d="M284.735477 201.667041c86.871087 50.149841 157.397136 172.303396 157.397136 272.603078 0 100.312644-70.526049 141.026175-157.397136 90.876334-86.858125-50.162803-157.384174-172.303396-157.384175-272.61604 0-100.299682 70.526049-141.013213 157.384175-90.863372zM881.556175 449.810892c110.539634 63.824714 200.275315 219.264593 200.275315 346.901059 0 127.636466-89.735681 179.445438-200.275315 115.633686C771.016541 848.520923 681.28086 693.081044 681.28086 565.444578c0-127.636466 89.735681-179.445438 200.275315-115.633686z" fill="#6D8ACA" /><path d="M405.476177 96.830672c66.63746 38.471111 120.7407 132.173153 120.7407 209.128337 0 76.942222-54.10324 108.180557-120.7407 69.696483-66.63746-38.471111-120.7407-132.173153-120.7407-209.115375s54.10324-108.180557 120.7407-69.709445z" fill="#6D8ACA" /><path d="M681.28086 32.215278c130.345516 75.270128 236.179957 258.56527 236.179957 409.079603 0 150.514333-105.834441 211.617034-236.179957 136.359868-130.358478-75.257167-236.179957-258.552308-236.179957-409.079603 0-150.514333 105.821479-211.617034 236.179957-136.359868z" fill="#6D8ACA" /><path d="M917.460817 566.961128L284.735477 201.667041V565.146453l632.72534 365.294086V566.961128z" fill="#6D8ACA" /><path d="M1031.655725 860.147805l-127.351302 73.520264v60.649032l127.351302-73.533225v-60.636071zM517.843448 13.692631L383.570457 91.218141V126.64319l134.272991-77.512548V13.692631zM324.554632 86.085203l-131.784294 76.099694v82.723258l131.784294-76.086732V86.085203zM172.121928 192.139997l-120.818472 69.748332v56.591937l120.818472-69.748331v-56.591938z" fill="#6D8ACA" /><path d="M157.384174 275.187305c86.871087 50.149841 157.397136 172.303396 157.397137 272.616039 0 100.299682-70.526049 141.013213-157.397137 90.863372C70.526049 588.516875 0 466.363321 0 366.063638c0-100.312644 70.526049-141.026175 157.384174-90.876333zM754.204873 523.344117c110.539634 63.811752 200.288277 219.251631 200.288277 346.888097 0 127.636466-89.748643 179.4584-200.288277 115.633686-110.539634-63.811752-200.275315-219.251631-200.275315-346.888097 0-127.649427 89.735681-179.4584 200.275315-115.633686z" fill="#4762AF" /><path d="M278.124875 170.350935c66.63746 38.471111 120.7407 132.186115 120.7407 209.128337s-54.10324 108.180557-120.7407 69.709445c-66.63746-38.471111-120.7407-132.186115-120.740701-209.128337s54.10324-108.180557 120.740701-69.709445z" fill="#4762AF" /><path d="M553.929558 105.748503c130.345516 75.257167 236.179957 258.552308 236.179957 409.079603 0 150.514333-105.834441 211.617034-236.179957 136.346906-130.358478-75.257167-236.179957-258.552308-236.179958-409.066641 0-150.514333 105.821479-211.617034 236.179958-136.359868z" fill="#4762AF" /><path d="M790.109515 640.494353L157.384174 275.187305v363.479411l632.725341 365.294087V640.494353z" fill="#4762AF" /><path d="M201.325234 786.446075c84.265732-43.733669 221.09223-43.733669 305.357963 0 84.265732 43.733669 84.265732 114.739311 0 158.472979-84.265732 43.733669-221.09223 43.733669-305.357963 0-84.265732-43.733669-84.265732-114.739311 0-158.472979z" fill="#D0DBF7" /><path d="M226.056663 814.742043l-87.933968-45.639077v101.816232l87.933968 45.639077v-101.816232zM481.938806 805.629782l87.94693-45.639077v101.816232l-87.94693 45.639077v-101.816232zM481.938806 612.535395l87.94693-45.639077v101.816232l-87.94693 45.639077v-101.816232z" fill="#D0DBF7" /><path d="M201.325234 684.733538c84.265732-43.733669 221.09223-43.733669 305.357963 0 84.265732 43.733669 84.265732 114.739311 0 158.47298-84.265732 43.733669-221.09223 43.733669-305.357963 0-84.265732-43.733669-84.265732-114.739311 0-158.47298z" fill="#E6ECFF" /><path d="M226.056663 707.987303l-87.933968-45.626116v101.816232l87.933968 45.626116V707.987303zM481.938806 709.076108l87.94693-45.626116v101.816232l-87.94693 45.626116v-101.816232z" fill="#E6ECFF" /><path d="M201.325234 583.021002c84.265732-43.733669 221.09223-43.733669 305.357963 0 84.265732 43.733669 84.265732 114.739311 0 158.472979-84.265732 43.733669-221.09223 43.733669-305.357963 0-84.265732-43.733669-84.265732-114.739311 0-158.472979z" fill="#D0DBF7" /><path d="M226.056663 606.171071l-87.933968-45.626116V662.361187l87.933968 45.626116v-101.816232z" fill="#D0DBF7" /><path d="M226.056663 518.807429l-87.933968-45.639077v101.816232l87.933968 45.639077v-101.816232zM481.938806 509.085956l87.94693-45.639077v97.461011l-87.94693 45.639078v-97.461012z" fill="#E6ECFF" /><path d="M201.325234 481.308466c84.265732-43.733669 221.09223-43.733669 305.357963 0 84.265732 43.720707 84.265732 114.739311 0 158.472979-84.265732 43.733669-221.09223 43.733669-305.357963 0-84.265732-43.733669-84.265732-114.752273 0-158.472979z" fill="#E6ECFF" /><path d="M201.325234 387.424956c84.265732-43.733669 221.09223-43.733669 305.357963 0 84.265732 43.733669 84.265732 114.752273 0 158.472979-84.265732 43.733669-221.09223 43.733669-305.357963 0-84.265732-43.720707-84.265732-114.739311 0-158.472979z" fill="#D0DBF7" /><path d="M405.372481 624.680756a11.886122 11.886122 0 0 0-11.873159-11.873159h-80.791926a11.87316 11.87316 0 0 0 0 23.733357h80.791926c6.558754 0 11.87316-5.314405 11.873159-11.860198zM405.372481 719.484565a11.87316 11.87316 0 0 0-11.873159-11.873159h-80.791926a11.87316 11.87316 0 0 0 0 23.733357h80.791926c6.558754 0 11.87316-5.314405 11.873159-11.860198zM405.372481 826.835556a11.87316 11.87316 0 0 0-11.873159-11.873159h-80.791926a11.87316 11.87316 0 0 0 0 23.733357h80.791926c6.558754 0 11.87316-5.314405 11.873159-11.860198zM405.372481 922.909638a11.87316 11.87316 0 0 0-11.873159-11.87316h-80.791926a11.87316 11.87316 0 0 0 0 23.733358h80.791926c6.558754 0 11.87316-5.314405 11.873159-11.860198z" fill="#BECCED" /></svg>