<?xml version="1.0" encoding="utf-8"?>
<!-- Uploaded to: SVG Repo, www.svgrepo.com, Generator: SVG Repo Mixer Tools -->
<svg width="800px" height="800px" viewBox="0 -23 1070 1070" class="icon"  version="1.1" xmlns="http://www.w3.org/2000/svg"><path d="M520.086329 863.355937L12.592755 570.354716c-6.775307-3.9112-12.272544 0.246375-12.272545 9.277551V715.492566c0 6.321053 3.849606 13.6815 8.592321 16.42242l498.893554 288.035228c6.775307 3.9112 12.280244-0.246375 12.280244-9.27755v-147.316727zM1056.913901 570.932157c0-7.013982-4.265364-10.239952-9.531624-7.206462L520.086329 868.167944v139.802296c0 10.524823 6.405745 15.367628 14.297437 10.809694l514.191888-296.866225c4.604129-2.656228 8.338247-9.801097 8.338247-15.937369v-135.044183z" fill="#BBC6E6" /><path d="M531.588952 399.447603l-412.469897 238.136634 407.588596 235.326422 412.477596-238.144333-407.596295-235.318723z" fill="#243462" /><path d="M496.334259 866.905274l55.211051-4.265364 10.247651 102.976964-35.978418 20.780173s-4.119079 4.288461-14.243543-1.609135-15.236741-117.882638-15.236741-117.882638z" fill="#BBC6E6" /><path d="M50.272699 646.815593L36.652793 638.954697v70.216816l13.619906 7.860895v-70.216815zM88.145124 668.681356l-13.619906-7.860896v70.216815l13.619906 7.860896v-70.216815zM126.017549 690.547118l-13.619906-7.860895v70.209116l13.619906 7.868595v-70.216816zM163.882275 712.412881l-13.619907-7.868595v70.216816l13.619907 7.868595v-70.216816zM440.32249 892.389666c8.130368 4.696519 14.736292 16.12985 14.736292 25.522889 0 9.393039-6.605924 13.204149-14.736292 8.507629-8.138067-4.68882-14.743991-16.12985-14.743991-25.522888 0-9.393039 6.605924-13.204149 14.743991-8.50763z" fill="#637DC6" /><path d="M502.532125 1016.901326s17.330927 13.935574 35.354782-0.138585c18.016157-14.081859 0.823816-54.002275 0.823816-54.002275l-35.77054 0.115488-0.408058 54.025372z" fill="#BBC6E6" /><path d="M520.086329 874.727673s4.965992 0.793019 10.632612-1.116385c2.925701-0.985499 5.335554-1.624534 8.230458-3.826509l28.386995-16.484013v67.129431l-25.176424 14.705495v41.768227l25.176424-14.36673v37.217992l-30.935435 18.247133s-3.202872 1.947901-6.336451 3.272165a21.195931 21.195931 0 0 1-5.38175 1.46285c-0.916206 0.092391-1.809315 0.230976-2.571537 0.277172-1.177979 0.061594-2.024893 0.038496-2.024892 0.038496v-148.325324z" fill="#8EA1D6" /><path d="M1.090131 570.716579c1.85551-3.071986 10.36314-1.016296 10.36314-1.016296l497.823364 287.419292s7.114072 7.03708 19.786975 1.047093c11.525721-5.443343 438.370047-252.872926 515.878016-297.805529 7.745408-4.49634 11.972275 5.76671 11.972275 5.76671l-0.023097 12.149357-517.464054 298.752532s-14.913374 12.99627-41.236981-1.47055C471.873862 861.092368 0.32021 588.1091 0.32021 588.1091s-1.085589-14.320535 0.769921-17.392521z" fill="#F3F5FB" /><path d="M520.548281 275.613474l13.327337-5.427945 513.337276 285.140325-1.008597 5.628124-34.561764 18.709086L520.548281 295.985589v-20.372115z" fill="#F3F5FB" /><path d="M1047.212894 555.325854s10.440132 3.233669 9.701007 11.402533l-6.097776 2.402154-6.813803-5.243163-1.093288-6.082378 4.30386-2.479146zM15.526154 570.077545l-0.261773-15.44462L504.610912 272.110332l15.937369 3.503142v19.124843L30.447228 577.699765l-14.921074-7.62222z" fill="#F3F5FB" /><path d="M503.917983 272.510691s12.441927-10.06287 29.957635-2.325162l-2.171178 6.528932-11.618111 11.094565-6.436542-1.747721-5.019886-6.174769-4.711918-7.375845z" fill="#F3F5FB" /><path d="M520.078629 291.496949l2.124983-1.824714 506.153911 276.532606c1.501346 0.823816 1.917104 1.532143 1.963299 2.34056 0.046195 0.816116-0.284871 1.732323-1.701526 2.533041l-111.469194 63.5339-397.38714-229.428826 0.315667-113.686567z" fill="#375198" /><path d="M517.04514 290.280473s2.086487-1.555241 5.158472-0.608238l-0.046195 1.216476-2.086487 1.724623-2.64083-1.162581-0.38496-1.17028z" fill="#375198" /><path d="M992.602382 664.616172c8.138067-4.704219 14.743991-0.885409 14.743991 8.515328 0 9.393039-6.605924 20.841768-14.743991 25.538287-8.145767 4.696519-14.751691 0.885409-14.751691-8.515328 0-9.393039 6.605924-20.841768 14.751691-25.538287zM928.99149 714.999816c0-11.256248-6.859998-16.437818-15.298335-11.564216l-250.409178 144.568108c-8.446036 4.881301-15.298335 17.977661-15.298335 29.233908 0 11.256248 6.852299 16.437818 15.298335 11.564217l250.409178-144.575807c8.438337-4.873601 15.298335-17.969961 15.298335-29.22621z" fill="#637DC6" /><path d="M0.32021 580.502278s-4.111379-18.5705 20.687784-29.180014l-5.150773 7.268056c27.093528 29.049128 20.964955 33.245198-12.195553 17.20004l-3.341458 4.711918z" fill="#F3F5FB" /><path d="M124.085047 634.72013L520.086329 406.092023v-113.871349s-1.139483-3.048888-3.295263-1.809314c-38.904119 22.350813-410.352613 235.826871-487.637306 281.005848-1.724624 1.016296-4.088282 3.141279-3.533938 5.581928 0.469652 2.05569 3.610931 4.457844 5.012187 5.389449 15.821881 10.55562 93.453038 52.331546 93.453038 52.331545z" fill="#375198" /><path d="M528.640153 654.961359L8.874035 354.876864v101.483316c0 4.211469 2.563838 9.115867 5.728214 10.940581l505.853642 292.054217c4.511738 2.610033 8.184263-0.161683 8.184262-6.182467V654.961359zM1065.436929 345.03727L528.640153 654.961359v101.483317c0 4.219168 2.563838 6.15937 5.728214 4.334656l525.340348-303.310465c3.164376-1.824713 5.728214-6.729111 5.728214-10.94828V345.03727z" fill="#BBC6E6" /><path d="M526.03012 605.909678l2.610033 49.051681 536.796776-309.924089 0.207879-40.867418-539.614688 301.739826z" fill="#4867BC" /><path d="M9.921128 303.561614l-1.047093 51.31525 519.766118 300.084495v-47.519537L9.921128 303.561614z" fill="#4867BC" /><path d="M573.495764 8.581696C555.533502-1.789143 528.324486-2.913228 512.772077 6.064054L20.26117 290.419059c-15.552409 8.977281-13.596809 24.691374 4.357754 35.054513L501.916188 601.043776c17.954563 10.36314 45.171278 11.494924 60.723687 2.517643l492.510907-284.355006c15.552409-8.977281 13.596809-24.691374-4.365454-35.054513L573.495764 8.581696z" fill="#375096" /><path d="M504.888084 641.287559l55.211051-4.265364 10.247651 102.976964-35.978419 20.780173s-4.119079 4.288461-14.243542-1.609135-15.236741-117.882638-15.236741-117.882638z" fill="#BBC6E6" /><path d="M8.612262 343.335744l509.58776 292.377585s9.931984 5.597327 22.604887-0.39266c12.680603-5.982288 524.693614-302.055494 524.693614-302.055494l-0.061594 11.772095-517.456354 298.752532s-14.913374 12.99627-41.236981-1.470549C480.427686 627.852433 8.874035 354.876864 8.874035 354.876864l-0.261773-11.54112z" fill="#F3F5FB" /><path d="M58.826524 403.166323l-13.619906-7.860896v70.216816l13.619906 7.860895v-70.216815zM96.698949 425.032085l-13.619906-7.860895v70.216815l13.619906 7.860896v-70.216816zM134.571374 446.897848l-13.619907-7.860896v70.216816l13.619907 7.860896v-70.216816zM172.4361 468.763611l-13.619907-7.860896v70.209117l13.619907 7.868594v-70.216815zM448.868616 646.45373c8.138067 4.696519 14.743991 16.12985 14.743991 25.522888 0 9.393039-6.605924 13.204149-14.743991 8.50763-8.130368-4.696519-14.736292-16.12985-14.736293-25.522889 0-9.393039 6.605924-13.204149 14.736293-8.507629zM1001.156206 417.009506c8.138067-4.696519 14.743991-0.885409 14.743992 8.515329s-6.605924 20.841768-14.743992 25.545986c-8.145767 4.696519-14.751691 0.87771-14.75169-8.515329 0-9.400738 6.605924-20.849467 14.75169-25.545986z" fill="#637DC6" /><path d="M528.640153 649.109958s5.397148 0.277172 11.056069-1.239573c2.925701-0.77762 5.389449-2.332861 8.284353-4.080583l27.909644-16.106751v50.345148l-25.176424 14.536113v33.106613l24.906951-14.37443v26.161923l-42.153187 23.95225s-0.454254 0.246375-1.008596 0.438855a8.70011 8.70011 0 0 1-1.355062 0.323367c-0.77762 0.138586-2.463748 0.069293-2.463748 0.069293V649.109958z" fill="#8EA1D6" /><path d="M937.545315 470.765406c0-11.256248-6.859998-16.437818-15.298335-11.564217L671.837802 603.769297c-8.446036 4.881301-15.298335 17.977661-15.298335 29.233909 0 11.256248 6.852299 16.437818 15.298335 11.564217l250.409178-144.575807c8.438337-4.873601 15.298335-17.969961 15.298335-29.22621z" fill="#637DC6" /><path d="M845.023882 276.321801v26.847153l-18.585899 8.584622-3.741817-24.429601 22.327716-11.002174z" fill="#98AADA" /><path d="M555.102346 125.116972c-14.605406-8.430637-36.732942-9.346844-49.382747-2.040291l-285.248114 164.68615c-12.642106 7.298853-11.056069 20.071846 3.549337 28.502483l277.841471 160.413087c14.597706 8.430637 36.725242 9.346844 49.375048 2.047991l285.248114-164.68615c12.642106-7.306552 11.056069-20.079545-3.549337-28.510183L555.102346 125.116972z" fill="#98A9D9" /><path d="M211.940758 272.533789v26.623876l11.210053 9.862691 10.84819-21.550095-22.058243-14.936472z" fill="#98AADA" /><path d="M555.102346 97.653882c-14.605406-8.430637-36.732942-9.346844-49.382747-2.04799L220.471485 260.299741c-12.642106 7.298853-11.056069 20.071846 3.549337 28.502483l277.841471 160.413087c14.597706 8.430637 36.725242 9.346844 49.375048 2.04799l285.248114-164.686149c12.642106-7.306552 11.056069-20.079545-3.549337-28.510183L555.102346 97.653882z" fill="#4463B9" /><path d="M528.016517 153.750343l64.057446 36.987015v12.334138l47.373253 27.347602h19.848569l73.404289 42.384163-58.598704 33.830339h-20.310522l-47.781311 27.586277v14.774788l-73.00393 42.145488-66.598186-38.449866v-11.949177l-47.450245-27.393797h-22.343114l-72.357196-41.953008 62.225033-35.924524 22.019747-0.200179 46.842007-27.047333-0.061594-12.480423 72.734458-41.991503z" fill="#3E5AA9" /><path d="M528.016517 142.740469l64.057446 36.987016v12.334138l47.373253 27.347601h19.848569l73.404289 42.384164-58.598704 33.830338h-20.310522l-47.781311 27.586278v14.767089l-73.00393 42.153187-66.598186-38.449866v-11.956877l-47.450245-27.393797h-22.343114l-72.357196-41.945308 62.225033-35.932224 22.019747-0.19248 46.842007-27.047332-0.061594-12.480423 72.734458-41.991504z" fill="#637DC6" /><path d="M457.383944 237.017323c10.440132-6.028483 27.401496-6.028483 37.841628 0 10.440132 6.028483 10.440132 15.821881 0 21.850364-10.440132 6.028483-27.401496 6.028483-37.841628 0-10.447831-6.028483-10.447831-15.821881 0-21.850364z" fill="#D9DFF1" /><path d="M494.601936 229.102533c7.445138-4.29616 19.540601-4.29616 26.985739 0 7.445138 4.29616 7.445138 11.279346 0 15.575506-7.445138 4.30386-19.540601 4.30386-26.985739 0-7.445138-4.29616-7.445138-11.279346 0-15.575506z" fill="#D9DFF1" /><path d="M513.018452 234.053126c15.336831-8.861793 40.243782-8.861793 55.580613 0 15.34453 8.854094 15.34453 23.236223 0 32.090317-15.336831 8.854094-40.243782 8.854094-55.580613 0-15.34453-8.854094-15.34453-23.236223 0-32.090317z" fill="#D9DFF1" /><path d="M528.416876 270.478099c14.058762-8.11497 36.879227-8.11497 50.930289 0 14.051062 8.10727 14.051062 21.288322 0 29.403292-14.051062 8.11497-36.871527 8.11497-50.930289 0-14.051062-8.11497-14.051062-21.296021 0-29.403292z" fill="#D9DFF1" /><path d="M495.225572 237.017323l-37.841628 21.850364 71.032932 41.013704 37.841628-21.850365-71.032932-41.013703z" fill="#D9DFF1" /></svg>