<?xml version="1.0" encoding="utf-8"?>
<!-- Uploaded to: SVG Repo, www.svgrepo.com, Generator: SVG Repo Mixer Tools -->
<svg width="800px" height="800px" viewBox="0 0 1024 1024" class="icon"  version="1.1" xmlns="http://www.w3.org/2000/svg"><path d="M642.285617 470.217984l-281.556553 162.55486v273.261577l281.556553-162.554859V470.217984z" fill="#4FC1F4" /><path d="M466.861125 894.140311L67.472294 663.553322c-5.332051-3.078048-9.658284 0.193893-9.658284 7.301275v106.91975c0 4.974562 3.029575 10.767108 6.762011 12.924166l392.62076 226.678837c5.332051 3.078048 9.664343-0.193893 9.664344-7.301275v-115.935764zM889.335314 664.316775c0-5.519885-3.356769-8.058669-7.501227-5.671364L466.861125 898.236296v110.022034c0 8.282857 5.041212 12.094062 11.25184 8.507046l404.660291-233.628682c3.623371-2.090407 6.562059-7.713297 6.562058-12.542439v-106.27748z" fill="#C4CADD" /><path d="M475.913494 529.052325l-324.606809 187.40949 320.765308 185.1979 324.612868-187.415549-320.771367-185.191841z" fill="#243462" /><path d="M448.168649 896.933579l43.45016-3.356769 8.064728 81.047182-28.314405 16.347585s-3.241645 3.374946-11.209427-1.266362-11.991057-92.771636-11.991056-92.771636z" fill="#C4CADD" /><path d="M97.125771 723.726735l-10.718635-6.186392v55.259442l10.718635 6.186392v-55.259442zM126.930727 740.934719l-10.718635-6.186392v55.259443l10.718635 6.186391v-55.259442zM156.735683 758.142703l-10.718636-6.186391v55.259442l10.718636 6.186391v-55.259442zM186.534579 775.350687l-10.718635-6.186391v55.253383l10.718635 6.192451v-55.259443z" fill="#848BA6" /><path d="M404.088337 916.989363c6.398462 3.696081 11.597212 12.699977 11.597212 20.08608 0 7.392162-5.19875 10.391441-11.597212 6.701419-6.404521-3.696081-11.603271-12.699977-11.603271-20.092139 0-7.392162 5.19875-10.391441 11.603271-6.69536z" fill="#4FC1F4" /><path d="M453.046264 1014.977927s13.639145 10.96706 27.823614-0.109065c14.17841-11.082184 0.648329-42.498874 0.648329-42.498874l-28.150808 0.090887-0.321135 42.517052z" fill="#C4CADD" /><path d="M466.861125 903.089674s3.908151 0.624092 8.367685-0.878576c2.302477-0.775571 4.198991-1.278481 6.477231-3.011398l22.340083-12.972638v52.829723l-19.813418 11.572975v32.870886l19.813418-11.306373v29.289928l-24.345662 14.360184s-2.520606 1.532965-4.98668 2.575138a16.680838 16.680838 0 0 1-4.235345 1.151239c-0.721039 0.078769-1.4239 0.181774-2.023756 0.218129-0.92705 0.048473-1.593556 0.030296-1.593556 0.030296v-116.729513z" fill="#A3ABC1" /><path d="M58.419925 663.838102c1.460255-2.417601 8.155615-0.799808 8.155615-0.799807l391.778539 226.194105s5.598654 5.538063 15.572014 0.824044c9.070547-4.283819 344.989788-199.006702 405.987244-234.367898 6.095504-3.538543 9.421977 4.538303 9.421977 4.538303l-0.018177 9.561338-407.235429 235.113173s-11.736572 10.227844-32.452804-1.157298C428.918731 892.358921 57.81401 677.525721 57.81401 677.525721s-0.85434-11.270018 0.605915-13.687619z" fill="#F3F5FB" /><path d="M467.224674 431.603025l10.488387-4.277759 403.987725 224.400597-0.793748 4.429238-27.199522 14.723733L467.224674 447.629475v-16.02645z" fill="#F3F5FB" /><path d="M881.700786 651.725863s8.216207 2.544843 7.634528 8.979659l-4.798846 1.890455-5.362347-4.13234-0.860399-4.786728 3.387064-1.951046zM69.78083 663.335193l-0.206011-12.154654L454.682234 428.840053l12.54244 2.762972v15.050927L81.523461 669.33981l-11.742631-6.004617z" fill="#F3F5FB" /><path d="M454.136911 429.155129s9.791585-7.919308 23.57615-1.829863l-1.70868 5.138159-9.143256 8.731234-5.065449-1.375427-3.950566-4.859438-3.708199-5.804665z" fill="#F3F5FB" /><path d="M466.855066 444.096991l1.672325-1.436018 398.334538 217.626468c1.181534 0.648329 1.508728 1.205771 1.545083 1.841981 0.036355 0.64227-0.224189 1.363309-1.339072 1.99346l-87.724364 50.000101-312.736936-180.556592 0.248426-89.4694z" fill="#C4CADD" /><path d="M464.467761 443.139646s1.642029-1.223948 4.05963-0.478673l-0.036355 0.957346-1.64203 1.357249-2.078288-0.914932-0.302957-0.92099z" fill="#C4CADD" /><path d="M838.72324 737.735488c6.404521-3.70214 11.603271-0.696802 11.603271 6.701419 0 7.392162-5.19875 16.402117-11.603271 20.098199-6.41058 3.70214-11.60933 0.696802-11.60933-6.701419 0-7.392162 5.19875-16.402117 11.60933-20.098199z" fill="#4FC1F4" /><path d="M788.662548 777.386562c0-8.858476-5.398702-12.936284-12.03953-9.100843l-197.067774 113.772648c-6.646887 3.841501-12.03953 14.148114-12.03953 23.00659 0 8.858476 5.392643 12.936284 12.03953 9.100842l197.067774-113.772647c6.640828-3.841501 12.03953-14.148114 12.03953-23.00659z" fill="#848BA6" /><path d="M57.81401 671.539281s-3.235586-14.614668 16.280934-22.964176l-4.053571 5.719837c21.322147 22.861171 16.499064 26.163407-9.597692 13.53614l-2.629671 3.708199z" fill="#F3F5FB" /><path d="M155.214836 714.207811L466.861125 534.281371V444.672611s-0.896754-2.405482-2.593316-1.42996c-30.616882 17.589711-322.940543 185.591745-383.762285 221.146834-1.357249 0.799808-3.217408 2.472133-2.781149 4.392883 0.369608 1.617793 2.841741 3.508247 3.944506 4.241405 12.451552 8.307094 73.545955 41.184038 73.545955 41.184038z" fill="#C4CADD" /><path d="M307.608502 656.797371l310.119383-30.671414-1.07247 113.596932c-0.012118 0.975523 0.036355 1.987401-0.321135 2.684203-0.363549 0.696802-0.454436 0.690743-1.841981 1.490551l-133.834491 77.266273c-2.217649 1.28454-4.48983 2.290358-6.665065 2.338831-2.169175 0.042414-4.247464-0.872518-6.374225-2.06011L311.140986 733.797041c-2.284299-1.278481-2.35095-1.205771-2.938688-2.387305-0.587737-1.181534-0.593797-2.999279-0.593796-4.707959v-69.904406z" fill="#4FC1F4" /><path d="M473.59284 684.566452L64.545725 448.398987v79.865648c0 3.320414 2.017697 7.180092 4.508007 8.616111l398.098232 229.841713c3.550662 2.054052 6.440876-0.127242 6.440876-4.865497V684.566452zM896.042793 440.661454L473.59284 684.566452v79.865648c0 3.314355 2.017697 4.84126 4.508007 3.405242l413.433939-238.69413c2.49031-1.436018 4.508007-5.301756 4.508007-8.616111V440.661454z" fill="#BBC6E6" /><path d="M471.538788 645.963612l2.054052 38.60284 422.449953-243.904998 0.163597-32.161965-424.667602 237.464123z" fill="#4867BC" /><path d="M65.369769 408.020816l-0.824044 40.378171 409.047115 236.167465v-37.39707L65.369769 408.020816z" fill="#4867BC" /><path d="M508.893444 175.876626c-14.135995-8.161674-35.549029-9.04631-47.788511-1.981342L73.507207 397.671789c-12.239482 7.071027-10.700458 19.431692 3.429478 27.593366l375.624847 216.863015c14.129936 8.161674 35.549029 9.052369 47.788511 1.981342l387.597726-223.776504c12.239482-7.064968 10.700458-19.431692-3.435537-27.593367L508.893444 175.876626z" fill="#375096" /><path d="M454.900364 673.805403l43.45016-3.356769 8.064728 81.041123-28.314405 16.347585s-3.241645 3.381005-11.209427-1.260303c-7.967781-4.647368-11.991057-92.771636-11.991056-92.771636z" fill="#BBC6E6" /><path d="M64.339714 439.322382l401.036919 230.090138s7.816303 4.405002 17.789663-0.302958c9.979419-4.714018 412.92497-237.718607 412.92497-237.718607l-0.048473 9.270499-407.22937 235.113173s-11.736572 10.227844-32.452804-1.157298c-20.710173-11.385142-391.814894-226.218342-391.814894-226.218342l-0.206011-9.076605z" fill="#F3F5FB" /><path d="M103.857486 486.408031l-10.718635-6.186391v55.259442l10.718635 6.186392v-55.259443zM133.662442 503.616016l-10.718636-6.186392v55.259442l10.718636 6.186392v-55.259442zM163.467397 520.824l-10.718635-6.186392v55.253383l10.718635 6.192451v-55.259442zM193.266294 538.031984l-10.718635-6.192451v55.259443l10.718635 6.186391v-55.253383zM410.813993 677.871092c6.404521 3.696081 11.603271 12.693918 11.603271 20.08608 0 7.392162-5.19875 10.391441-11.603271 6.695361-6.398462-3.696081-11.597212-12.693918-11.597212-20.086081 0-7.392162 5.19875-10.391441 11.597212-6.69536zM845.454955 497.302382c6.404521-3.70214 11.603271-0.696802 11.603271 6.701419 0 7.392162-5.19875 16.402117-11.603271 20.098199-6.41058 3.70214-11.60933 0.696802-11.609331-6.70142 0-7.392162 5.19875-16.402117 11.609331-20.098198z" fill="#637DC6" /><path d="M473.59284 679.961499s4.247464 0.21207 8.700938-0.975523c2.302477-0.618033 4.241405-1.835922 6.519645-3.211349l21.964416-12.6818v39.626837l-19.813418 11.433615v26.060401l19.601348-11.318491v20.58899l-33.173843 18.850013s-0.35749 0.193893-0.793748 0.351431c-0.363549 0.121183-0.78163 0.206011-1.066411 0.254484-0.611974 0.103006-1.938928 0.048473-1.938927 0.048474V679.961499z" fill="#8EA1D6" /><path d="M795.394263 539.607363c0-8.864536-5.398702-12.942343-12.03953-9.100842L586.286959 644.279168c-6.646887 3.835442-12.03953 14.142055-12.03953 23.00659 0 8.858476 5.392643 12.936284 12.03953 9.100843l197.067774-113.778707c6.640828-3.835442 12.03953-14.142055 12.03953-23.000531z" fill="#637DC6" /><path d="M722.581465 386.577486v21.134313l-14.626787 6.755952-2.944747-19.225681 17.571534-8.664584z" fill="#98AADA" /><path d="M494.418136 267.587911c-11.494206-6.634769-28.908202-7.355807-38.863384-1.611734L231.069327 395.587442c-9.949123 5.744074-8.700938 15.796202 2.793268 22.43097l218.656523 126.242378c11.488147 6.634769 28.902142 7.355807 38.857325 1.611733l224.485425-129.605205c9.949123-5.750133 8.700938-15.802262-2.793268-22.43703L494.418136 267.587911z" fill="#98A9D9" /><path d="M224.355789 383.596385v20.958598l8.822122 7.755711 8.537341-16.959559-17.359463-11.75475z" fill="#98AADA" /><path d="M494.418136 245.974925c-11.494206-6.634769-28.908202-7.355807-38.863384-1.611733l-224.485425 129.605205c-9.949123 5.750133-8.700938 15.802262 2.793268 22.43703l218.656523 126.242377c11.488147 6.634769 28.902142 7.355807 38.857325 1.611734l224.485425-129.611265c9.949123-5.744074 8.700938-15.796202-2.793268-22.430971L494.418136 245.974925z" fill="#4463B9" /><path d="M473.102049 290.121888l50.412122 29.108153v9.700698l37.281946 21.528158h15.620487l57.76793 33.355617-46.116185 26.623903h-15.984036l-37.603081 21.709932v11.621448l-57.452855 33.173843-52.411642-30.259392v-9.409859l-37.342537-21.558453h-17.583652l-56.943886-33.016305 48.970046-28.271991 17.329167-0.151479 36.863865-21.285792-0.048474-9.821881 57.240785-33.0466z" fill="#3E5AA9" /><path d="M473.102049 281.457304l50.412122 29.102094v9.706758l37.281946 21.528157h15.620487l57.76793 33.349559-46.116185 26.629961h-15.984036l-37.603081 21.709932v11.621449l-57.452855 33.173842-52.411642-30.265451v-9.403799l-37.342537-21.558454h-17.583652l-56.943886-33.016305 48.970046-28.271991 17.329167-0.157538 36.863865-21.279732-0.048474-9.821881 57.240785-33.046601z" fill="#637DC6" /><path d="M417.515412 355.651588c8.216207-4.744314 21.564513-4.744314 29.780719 0 8.216207 4.744314 8.216207 12.445493 0 17.189807-8.216207 4.750373-21.564513 4.750373-29.780719 0-8.222266-4.744314-8.222266-12.445493 0-17.189807z" fill="#D9DFF1" /><path d="M446.80534 349.422782c5.859197-3.381005 15.378121-3.381005 21.237319 0 5.859197 3.381005 5.859197 8.876654 0 12.25766s-15.378121 3.381005-21.237319 0c-5.859197-3.381005-5.859197-8.876654 0-12.25766z" fill="#D9DFF1" /><path d="M461.298826 353.312756c12.069826-6.968022 31.671174-6.968022 43.740999 0 12.075885 6.974081 12.075885 18.286513 0 25.260594-12.069826 6.968022-31.671174 6.968022-43.740999 0-12.075885-6.974081-12.075885-18.286513 0-25.260594z" fill="#D9DFF1" /><path d="M473.417124 381.978592c11.064007-6.386343 29.023325-6.386343 40.081273 0 11.057948 6.386343 11.057948 16.753548 0 23.139891-11.057948 6.386343-29.017266 6.386343-40.081273 0-11.057948-6.386343-11.057948-16.753548 0-23.139891z" fill="#D9DFF1" /><path d="M447.296131 355.651588l-29.780719 17.189807 55.901712 32.277088 29.780719-17.189806-55.901712-32.277089z" fill="#D9DFF1" /><path d="M156.378193 418.17595s-4.350469 17.001973 14.051167 27.629721l295.135107 170.395399s11.421497 9.518924 34.506855-7.810244l312.2825-180.296048s18.795481-9.700698 11.603271-29.05968L473.59284 580.906525 156.378193 418.17595z" fill="#4FC1F4" /><path d="M473.59284 515.443475L64.545725 279.282069v79.865648c0 3.314355 2.017697 7.174033 4.508007 8.610051l398.098232 229.841713c3.550662 2.054052 6.440876-0.127242 6.440876-4.865496V515.443475zM896.042793 271.538476L473.59284 515.443475v79.865648c0 3.320414 2.017697 4.847319 4.508007 3.411301l413.433939-238.700189c2.49031-1.436018 4.508007-5.295697 4.508007-8.616111V271.538476z" fill="#BBC6E6" /><path d="M471.538788 476.840635l2.054052 38.60284 422.449953-243.904999 0.163597-32.161964-424.667602 237.464123z" fill="#4867BC" /><path d="M65.369769 238.897839l-0.824044 40.38423 409.047115 236.161406v-37.39707L65.369769 238.897839z" fill="#4867BC" /><path d="M508.893444 6.753649C494.757448-1.408025 473.344414-2.292661 461.104933 4.772307L73.507207 228.554871c-12.239482 7.064968-10.700458 19.431692 3.429478 27.587307L452.561532 473.011252c14.129936 8.155615 35.549029 9.04631 47.788511 1.981342l387.597726-223.782564c12.239482-7.064968 10.700458-19.431692-3.435537-27.587307L508.893444 6.753649z" fill="#375096" /><path d="M454.900364 504.682426l43.45016-3.356769 8.064728 81.041123-28.314405 16.353644s-3.241645 3.374946-11.209427-1.266362-11.991057-92.771636-11.991056-92.771636z" fill="#BBC6E6" /><path d="M64.339714 270.199404l401.036919 230.096198s7.816303 4.405002 17.789663-0.309017c9.979419-4.707959 412.92497-237.712548 412.92497-237.712548l-0.048473 9.264439-407.22937 235.113173s-11.736572 10.227844-32.452804-1.157297C435.650446 494.10921 64.545725 279.282069 64.545725 279.282069l-0.206011-9.082665z" fill="#F3F5FB" /><path d="M103.857486 317.285054l-10.718635-6.186391v55.259442l10.718635 6.186391v-55.259442zM133.662442 334.493038l-10.718636-6.186391v55.259442l10.718636 6.186392v-55.259443zM163.467397 351.701023l-10.718635-6.186392v55.259442l10.718635 6.186392v-55.259442zM193.266294 368.909007l-10.718635-6.186392v55.253383l10.718635 6.192451v-55.259442zM410.813993 508.748115c6.404521 3.696081 11.603271 12.693918 11.603271 20.08608 0 7.392162-5.19875 10.391441-11.603271 6.69536-6.398462-3.696081-11.597212-12.693918-11.597212-20.08608 0-7.392162 5.19875-10.391441 11.597212-6.69536zM845.454955 328.179405c6.404521-3.696081 11.603271-0.696802 11.603271 6.701419s-5.19875 16.402117-11.603271 20.104258c-6.41058 3.696081-11.60933 0.690743-11.609331-6.70142 0-7.398221 5.19875-16.408176 11.609331-20.104257z" fill="#637DC6" /><path d="M473.59284 510.838522s4.247464 0.218129 8.700938-0.975523c2.302477-0.611974 4.241405-1.835922 6.519645-3.21135l21.964416-12.67574v39.620778l-19.813418 11.439674v26.054342l19.601348-11.312432v20.58899l-33.173843 18.850013s-0.35749 0.193893-0.793748 0.345372a6.846839 6.846839 0 0 1-1.066411 0.254484c-0.611974 0.109065-1.938928 0.054532-1.938927 0.054532V510.838522z" fill="#8EA1D6" /><path d="M795.394263 370.484386c0-8.858476-5.398702-12.936284-12.03953-9.100843L586.286959 475.156191c-6.646887 3.841501-12.03953 14.148114-12.03953 23.00659 0 8.858476 5.392643 12.936284 12.03953 9.100843l197.067774-113.778707c6.640828-3.835442 12.03953-14.142055 12.03953-23.000531z" fill="#637DC6" /><path d="M494.418136 132.511294c-11.494206-6.640828-28.908202-7.361866-38.863384-1.611734l-224.485425 129.605205c-9.949123 5.744074-8.700938 15.796202 2.793268 22.437031L452.519118 409.178114c11.488147 6.634769 28.902142 7.361866 38.857325 1.611733l224.485425-129.605205c9.949123-5.744074 8.700938-15.802262-2.793268-22.43703L494.418136 132.511294z" fill="#323654" /><path d="M722.581465 177.77314v21.134313l-14.626787 6.755952-2.944747-19.231741 17.571534-8.658524z" fill="#98AADA" /><path d="M494.418136 58.783565c-11.494206-6.634769-28.908202-7.355807-38.863384-1.611734l-224.485425 129.605205c-9.949123 5.750133-8.700938 15.802262 2.793268 22.43703l218.656523 126.242377c11.488147 6.634769 28.902142 7.355807 38.857325 1.605675l224.485425-129.605205c9.949123-5.744074 8.700938-15.796202-2.793268-22.430971L494.418136 58.783565z" fill="#98A9D9" /><path d="M224.355789 174.792039v20.958597l8.822122 7.755711 8.537341-16.959559-17.359463-11.754749z" fill="#98AADA" /><path d="M494.418136 37.170579c-11.494206-6.634769-28.908202-7.355807-38.863384-1.611734l-224.485425 129.605205c-9.949123 5.750133-8.700938 15.802262 2.793268 22.43703l218.656523 126.236318c11.488147 6.640828 28.902142 7.361866 38.857325 1.611734l224.485425-129.605205c9.949123-5.744074 8.700938-15.796202-2.793268-22.43703L494.418136 37.170579z" fill="#4463B9" /><path d="M473.102049 81.317541l50.412122 29.102095v9.706757l37.281946 21.528158h15.620487l57.76793 33.349558-46.116185 26.623902h-15.984036L534.481232 223.344002v11.621449l-57.452855 33.167784-52.411642-30.259392v-9.4038l-37.342537-21.558454h-17.583652l-56.943886-33.016305 48.970046-28.271991 17.329167-0.157537 36.863865-21.279733-0.048474-9.821881 57.240785-33.046601z" fill="#3E5AA9" /><path d="M473.102049 72.652958l50.412122 29.102094v9.706757l37.281946 21.528158h15.620487l57.76793 33.349558-46.116185 26.623902h-15.984036l-37.603081 21.709933v11.627507l-57.452855 33.167784-52.411642-30.259392v-9.4038l-37.342537-21.558453h-17.583652l-56.943886-33.016305 48.970046-28.271991 17.329167-0.157538 36.863865-21.285792-0.048474-9.815822 57.240785-33.0466z" fill="#637DC6" /><path d="M417.515412 146.841182c8.216207-4.744314 21.564513-4.744314 29.780719 0 8.216207 4.750373 8.216207 12.451552 0 17.195866-8.216207 4.744314-21.564513 4.744314-29.780719 0-8.222266-4.744314-8.222266-12.445493 0-17.195866z" fill="#D9DFF1" /><path d="M446.80534 140.618436c5.859197-3.387064 15.378121-3.387064 21.237319 0 5.859197 3.381005 5.859197 8.870595 0 12.257659-5.859197 3.381005-15.378121 3.381005-21.237319 0-5.859197-3.387064-5.859197-8.876654 0-12.257659z" fill="#D9DFF1" /><path d="M461.298826 144.50841c12.069826-6.968022 31.671174-6.968022 43.740999 0 12.075885 6.968022 12.075885 18.286513 0 25.254535-12.069826 6.974081-31.671174 6.974081-43.740999 0-12.075885-6.968022-12.075885-18.286513 0-25.254535z" fill="#D9DFF1" /><path d="M473.417124 173.174246c11.064007-6.386343 29.023325-6.386343 40.081273 0 11.057948 6.386343 11.057948 16.753548 0 23.139891-11.057948 6.386343-29.017266 6.386343-40.081273 0-11.057948-6.386343-11.057948-16.753548 0-23.139891z" fill="#D9DFF1" /><path d="M447.296131 146.841182l-29.780719 17.195866 55.901712 32.277089 29.780719-17.195866-55.901712-32.277089z" fill="#D9DFF1" /><path d="M829.325499 756.561265l99.557883 55.41698s34.04636 9.155375 34.046361-36.645735V605.458198s0.260543-24.993991-27.835733-41.220393L748.005655 456.227408l-18.971196 10.954942 183.034784 105.671565s24.909163 14.796443 29.380815 31.525755c4.980621 18.619766 1.442078 167.044689 1.442078 167.044689s-0.248425 26.969274-17.038328 17.274634c-16.789903-9.68858-80.114073-41.614238-80.114073-41.614237l-16.414236 9.476509zM397.550515 923.799847l15.226642 8.791826-150.042715 86.621599s-32.41039 16.389999-32.41039-36.997166v-388.330883s-3.138639-27.520656 25.406013-44.001543l57.065069-32.943595 15.771965 9.100842-63.978558 40.856845s-12.481848 8.579756-14.517722 31.222796c-2.169175 24.115414-4.253523 388.985271 0 386.276832 0 0-1.005819 26.787499 16.087042 16.917145l125.787941-72.624965 5.604713-4.889733z" fill="#4FC1F4" /></svg>