<?xml version="1.0" encoding="utf-8"?>
<!-- Uploaded to: SVG Repo, www.svgrepo.com, Generator: SVG Repo Mixer Tools -->
<svg width="800px" height="800px" viewBox="0 0 1024 1024" class="icon"  version="1.1" xmlns="http://www.w3.org/2000/svg"><path d="M496.939726 462.449075c-14.648177-8.454234-36.851467-9.37833-49.539062-2.047997L33.542827 699.329957c-12.687594 7.330333-11.101645 20.142805 3.55902 28.609526L520.479209 1007.016606c14.648177 8.466721 36.851467 9.37833 49.539062 2.060485l413.857836-238.941367c12.687594-7.330333 11.101645-20.142805-3.55902-28.609526L496.939726 462.449075z" fill="#BBC6E6" /><path d="M24.976204 690.675919v21.079389l17.17071 10.227499 5.119994-26.224358L24.976204 690.675919zM992.442731 736.630985v21.079389l-20.50495 10.639596-6.705943-23.252264 27.210893-8.466721z" fill="#BBC6E6" /><path d="M496.939726 441.369686c-14.648177-8.454234-36.851467-9.37833-49.539062-2.047997L33.542827 678.263056c-12.687594 7.317845-11.101645 20.142805 3.55902 28.597038l483.377362 279.077123c14.648177 8.466721 36.851467 9.37833 49.539062 2.060485l413.857836-238.941367c12.687594-7.330333 11.101645-20.142805-3.55902-28.609526L496.939726 441.369686z" fill="#F3F5FB" /><path d="M376.157824 535.565083c-3.309264-1.910632-8.30438-2.110436-11.164084-0.462048l-93.208862 53.809886c-2.859704 1.648388-2.497558 4.533068 0.799219 6.443699l447.887063 258.584661c3.296776 1.910632 8.291892 2.110436 11.151597 0.462048l93.208861-53.809886c2.859704-1.660876 2.497558-4.545555-0.799218-6.443699L376.157824 535.565083z" fill="#DEE5F6" /><path d="M885.67213 722.457343c-3.521557 2.03551-9.228477 2.03551-12.750034 0-3.521557-2.023022-3.521557-5.332286 0-7.367796 3.521557-2.023022 9.228477-2.023022 12.750034 0 3.521557 2.03551 3.521557 5.344774 0 7.367796zM813.367828 764.216512c-3.521557 2.023022-9.240964 2.023022-12.762521 0-3.521557-2.03551-3.521557-5.332286 0-7.367796 3.521557-2.03551 9.240964-2.03551 12.762521 0 3.509069 2.03551 3.509069 5.332286 0 7.367796zM741.051038 805.963193c-3.521557 2.03551-9.240964 2.03551-12.762521 0-3.521557-2.03551-3.521557-5.332286 0-7.367796 3.521557-2.03551 9.240964-2.03551 12.762521 0 3.521557 2.03551 3.521557 5.332286 0 7.367796zM668.734248 847.709874c-3.521557 2.03551-9.240964 2.03551-12.762521 0-3.509069-2.03551-3.509069-5.332286 0-7.367796 3.521557-2.023022 9.240964-2.023022 12.762521 0 3.521557 2.03551 3.521557 5.332286 0 7.367796zM596.417458 889.469042c-3.521557 2.023022-9.228477 2.023022-12.750033 0-3.521557-2.03551-3.521557-5.344774 0-7.367796 3.521557-2.03551 9.228477-2.03551 12.750033 0 3.521557 2.023022 3.521557 5.332286 0 7.367796zM524.100668 931.215723c-3.509069 2.03551-9.228477 2.03551-12.750033 0-3.521557-2.03551-3.521557-5.332286 0-7.367796 3.521557-2.03551 9.240964-2.03551 12.750033 0 3.521557 2.03551 3.521557 5.332286 0 7.367796z" fill="#C4CBDC" /><path d="M385.523666 475.036767l536.475444 309.734647 1.685851-0.96156-536.475443-309.747135-1.685852 0.974048zM313.643949 516.54618l536.475444 309.734646 1.685851-0.974047L315.317313 515.572132l-1.673364 0.974048z" fill="#DEE3F1" /><path d="M896.861189 672.456234l-459.837878 265.490408 1.685852 0.974047 459.837878-265.490408-1.685852-0.974047z" fill="#DEE3F1" /><path d="M472.363756 483.828171c-3.521557 2.03551-9.240964 2.03551-12.762521 0-3.521557-2.023022-3.521557-5.332286 0-7.367796 3.521557-2.023022 9.240964-2.023022 12.762521 0 3.521557 2.03551 3.521557 5.344774 0 7.367796zM400.046966 525.58734c-3.521557 2.023022-9.240964 2.023022-12.762521 0-3.521557-2.03551-3.521557-5.332286 0-7.367796 3.521557-2.03551 9.240964-2.03551 12.762521 0 3.521557 2.03551 3.521557 5.332286 0 7.367796zM327.730176 567.33402c-3.521557 2.03551-9.240964 2.03551-12.750033 0-3.521557-2.03551-3.521557-5.332286 0-7.367796 3.509069-2.03551 9.228477-2.03551 12.750033 0 3.521557 2.03551 3.521557 5.332286 0 7.367796zM255.413386 609.080701c-3.521557 2.03551-9.228477 2.03551-12.750033 0-3.521557-2.03551-3.521557-5.332286 0-7.367796 3.521557-2.023022 9.228477-2.023022 12.750033 0 3.521557 2.03551 3.521557 5.332286 0 7.367796zM183.096596 650.827382c-3.509069 2.03551-9.228477 2.03551-12.750033 0-3.521557-2.023022-3.521557-5.332286 0-7.355308 3.521557-2.03551 9.240964-2.03551 12.750033 0 3.521557 2.023022 3.521557 5.332286 0 7.355308zM110.792294 692.586551c-3.521557 2.03551-9.240964 2.03551-12.762521 0-3.521557-2.03551-3.521557-5.332286 0-7.367796 3.521557-2.03551 9.240964-2.03551 12.762521 0 3.521557 2.03551 3.521557 5.332286 0 7.367796zM541.246403 523.601781c-3.521557 2.03551-9.240964 2.03551-12.762521 0-3.521557-2.03551-3.521557-5.332286 0-7.367796 3.521557-2.023022 9.240964-2.023022 12.762521 0 3.521557 2.03551 3.521557 5.332286 0 7.367796zM468.929614 565.348462c-3.521557 2.03551-9.240964 2.03551-12.750034 0-3.521557-2.023022-3.521557-5.332286 0-7.355308 3.509069-2.03551 9.228477-2.03551 12.750034 0 3.521557 2.023022 3.521557 5.332286 0 7.355308zM396.612824 607.10763c-3.521557 2.023022-9.228477 2.023022-12.750034 0-3.521557-2.03551-3.521557-5.332286 0-7.367796 3.521557-2.03551 9.228477-2.03551 12.750034 0 3.521557 2.03551 3.521557 5.332286 0 7.367796zM324.308522 648.854311c-3.521557 2.03551-9.240964 2.03551-12.762521 0-3.521557-2.03551-3.521557-5.332286 0-7.367796 3.521557-2.03551 9.240964-2.03551 12.762521 0 3.509069 2.03551 3.509069 5.332286 0 7.367796zM251.991732 690.600992c-3.521557 2.03551-9.240964 2.03551-12.762521 0-3.521557-2.023022-3.521557-5.332286 0-7.355308 3.521557-2.03551 9.240964-2.03551 12.762521 0 3.521557 2.023022 3.521557 5.332286 0 7.355308zM179.674942 732.360161c-3.521557 2.023022-9.240964 2.023022-12.762521 0-3.509069-2.03551-3.509069-5.332286 0-7.367796 3.521557-2.03551 9.240964-2.03551 12.762521 0 3.521557 2.03551 3.521557 5.332286 0 7.367796zM610.129051 563.375391c-3.521557 2.03551-9.228477 2.03551-12.750033 0-3.521557-2.03551-3.521557-5.332286 0-7.367796 3.521557-2.03551 9.228477-2.03551 12.750033 0 3.521557 2.03551 3.521557 5.332286 0 7.367796zM537.812261 605.122072c-3.509069 2.03551-9.228477 2.03551-12.750033 0-3.521557-2.03551-3.521557-5.332286 0-7.367796 3.521557-2.023022 9.240964-2.023022 12.750033 0 3.521557 2.03551 3.521557 5.332286 0 7.367796zM465.507959 646.88124c-3.521557 2.023022-9.240964 2.023022-12.762521 0-3.521557-2.03551-3.521557-5.332286 0-7.367796 3.521557-2.03551 9.240964-2.03551 12.762521 0 3.521557 2.03551 3.521557 5.332286 0 7.367796zM393.191169 688.627921c-3.521557 2.03551-9.240964 2.03551-12.762521 0-3.521557-2.03551-3.521557-5.332286 0-7.367796 3.521557-2.03551 9.240964-2.03551 12.762521 0 3.521557 2.03551 3.521557 5.332286 0 7.367796zM320.874379 730.374602c-3.521557 2.03551-9.240964 2.03551-12.750033 0-3.521557-2.03551-3.521557-5.332286 0-7.367796 3.509069-2.023022 9.228477-2.023022 12.750033 0 3.521557 2.03551 3.521557 5.332286 0 7.367796zM248.55759 772.121283c-3.521557 2.03551-9.228477 2.03551-12.750034 0-3.521557-2.023022-3.521557-5.332286 0-7.355308 3.521557-2.03551 9.228477-2.03551 12.750034 0 3.521557 2.023022 3.521557 5.332286 0 7.355308zM679.011699 603.149001c-3.509069 2.03551-9.228477 2.03551-12.750033 0-3.521557-2.03551-3.521557-5.332286 0-7.367796 3.521557-2.03551 9.240964-2.03551 12.750033 0 3.521557 2.03551 3.521557 5.332286 0 7.367796zM606.707397 644.895682c-3.521557 2.03551-9.240964 2.03551-12.762521 0-3.521557-2.03551-3.521557-5.332286 0-7.367796 3.521557-2.023022 9.240964-2.023022 12.762521 0 3.521557 2.03551 3.521557 5.332286 0 7.367796zM534.390607 686.642363c-3.521557 2.03551-9.240964 2.03551-12.762521 0-3.521557-2.023022-3.521557-5.332286 0-7.355308 3.521557-2.03551 9.240964-2.03551 12.762521 0 3.521557 2.023022 3.521557 5.332286 0 7.355308zM462.073817 728.401531c-3.521557 2.023022-9.228477 2.023022-12.750033 0-3.521557-2.03551-3.521557-5.332286 0-7.367796 3.521557-2.03551 9.228477-2.03551 12.750033 0 3.521557 2.03551 3.521557 5.332286 0 7.367796zM389.757027 770.148212c-3.521557 2.03551-9.228477 2.03551-12.750033 0-3.521557-2.03551-3.521557-5.332286 0-7.367796 3.521557-2.03551 9.228477-2.03551 12.750033 0 3.521557 2.03551 3.521557 5.332286 0 7.367796zM317.452725 811.894893c-3.521557 2.03551-9.240964 2.03551-12.762521 0-3.521557-2.023022-3.521557-5.332286 0-7.355308 3.521557-2.03551 9.240964-2.03551 12.762521 0 3.509069 2.023022 3.509069 5.332286 0 7.355308zM747.906834 642.922611c-3.521557 2.023022-9.240964 2.023022-12.762521 0-3.521557-2.03551-3.521557-5.332286 0-7.367796 3.521557-2.03551 9.240964-2.03551 12.762521 0 3.521557 2.03551 3.521557 5.332286 0 7.367796zM675.590044 684.669292c-3.521557 2.03551-9.240964 2.03551-12.762521 0-3.509069-2.03551-3.509069-5.332286 0-7.367796 3.521557-2.03551 9.240964-2.03551 12.762521 0 3.521557 2.03551 3.521557 5.332286 0 7.367796zM603.273255 726.415973c-3.521557 2.03551-9.228477 2.03551-12.750034 0-3.521557-2.03551-3.521557-5.332286 0-7.367796 3.521557-2.023022 9.228477-2.023022 12.750034 0 3.521557 2.03551 3.521557 5.332286 0 7.367796zM530.956465 768.175141c-3.509069 2.023022-9.228477 2.023022-12.750034 0-3.521557-2.03551-3.521557-5.344774 0-7.367796 3.521557-2.03551 9.240964-2.03551 12.750034 0 3.521557 2.023022 3.521557 5.332286 0 7.367796zM458.652163 809.921822c-3.521557 2.03551-9.240964 2.03551-12.762521 0-3.521557-2.03551-3.521557-5.332286 0-7.367796 3.521557-2.03551 9.240964-2.03551 12.762521 0 3.521557 2.03551 3.521557 5.332286 0 7.367796zM386.335373 851.668503c-3.521557 2.03551-9.240964 2.03551-12.762521 0-3.521557-2.03551-3.521557-5.332286 0-7.367796 3.521557-2.023022 9.240964-2.023022 12.762521 0 3.521557 2.03551 3.521557 5.332286 0 7.367796zM816.789482 682.683733c-3.521557 2.03551-9.240964 2.03551-12.750033 0-3.521557-2.023022-3.521557-5.332286 0-7.355308 3.509069-2.03551 9.228477-2.03551 12.750033 0 3.521557 2.023022 3.521557 5.332286 0 7.355308zM744.472692 724.442902c-3.521557 2.023022-9.228477 2.023022-12.750033 0-3.521557-2.03551-3.521557-5.332286 0-7.367796 3.521557-2.03551 9.228477-2.03551 12.750033 0 3.521557 2.03551 3.521557 5.332286 0 7.367796zM672.16839 766.189583c-3.521557 2.03551-9.240964 2.03551-12.762521 0-3.521557-2.03551-3.521557-5.332286 0-7.367796 3.521557-2.023022 9.240964-2.023022 12.762521 0 3.509069 2.03551 3.509069 5.332286 0 7.367796zM599.8516 807.936263c-3.521557 2.03551-9.240964 2.03551-12.762521 0-3.521557-2.023022-3.521557-5.332286 0-7.355308 3.521557-2.03551 9.240964-2.03551 12.762521 0 3.521557 2.023022 3.521557 5.332286 0 7.355308zM527.53481 849.695432c-3.521557 2.023022-9.240964 2.023022-12.762521 0-3.509069-2.03551-3.509069-5.332286 0-7.367796 3.521557-2.03551 9.240964-2.03551 12.762521 0 3.521557 2.03551 3.521557 5.332286 0 7.367796zM455.21802 891.442113c-3.521557 2.03551-9.228477 2.03551-12.750033 0-3.521557-2.03551-3.521557-5.332286 0-7.367796 3.521557-2.03551 9.228477-2.03551 12.750033 0 3.521557 2.03551 3.521557 5.332286 0 7.367796z" fill="#C4CBDC" /><path d="M547.065713 470.503699L87.227835 735.994107l1.685852 0.96156 459.837878-265.47792-1.685852-0.974048z" fill="#DEE3F1" /><path d="M241.751744 558.043105l536.475444 309.734646 1.685851-0.961559-536.475443-309.747135-1.685852 0.974048zM169.872027 599.552518l536.475443 309.734646 1.685852-0.974047-536.475443-309.734647-1.685852 0.974048zM97.979822 641.049443l536.487931 309.734646 1.673364-0.974047-536.475443-309.734647-1.685852 0.974048z" fill="#DEE3F1" /><path d="M617.022311 510.889211l-459.837878 265.490408 1.685851 0.974048 459.837879-265.490408-1.685852-0.974048zM686.991396 551.287211L227.153518 816.765131l1.673364 0.974047 459.837878-265.490408-1.673364-0.961559zM756.947994 591.672722L297.110116 857.16313l1.685851 0.974048 459.837879-265.490408-1.685852-0.974048zM826.904592 632.058234l-459.837879 265.490408 1.685852 0.974048 459.837878-265.490408-1.685851-0.974048z" fill="#DEE3F1" /><path d="M753.051804 271.298479c0-4.882726-2.972094-10.56467-6.631017-12.675107L299.857429 0.800467c-3.67141-2.122924-6.643504 0.124878-6.643504 5.007604v424.784653c0 4.882726 2.972094 10.56467 6.643504 12.687594l446.563358 257.822905c3.658922 2.110436 6.631016-0.137366 6.631017-5.020091V271.298479z" fill="#8095D1" /><path d="M676.414239 315.555205c0-4.882726-2.972094-10.577158-6.631017-12.687594L223.207377 45.044706c-3.658922-2.110436-6.631016 0.137366-6.631017 5.020091v424.784653c0 4.882726 2.972094 10.56467 6.631017 12.675107l446.575845 257.822905c3.658922 2.122924 6.631016-0.124878 6.631017-5.020092V315.555205z" fill="#4463B9" /><path d="M343.876888 372.799233l-7.130528 3.184387 40.360536 82.431899 7.130528-3.184386-40.360536-82.4319z" fill="#F2F2F2" /><path d="M385.074106 354.404719l-48.327746 21.578901 5.856773 11.950814 48.315259-21.591388-5.844286-11.938327z" fill="#F2F2F2" /><path d="M492.818755 478.708177l7.130528-3.184386-40.360536-82.419412-7.130528 3.184387 40.360536 82.419411z" fill="#F2F2F2" /><path d="M451.621537 497.115179l48.327746-21.591388-5.856773-11.950815-48.315259 21.591388 5.844286 11.950815z" fill="#F2F2F2" /><path d="M676.414239 315.892376c0-5.070043-3.084484-10.976767-6.89326-13.174618L222.745328 44.769975c-3.409167-1.960583-6.168968 0.124878-6.168968 4.670433v40.148244l459.837879 265.490408v-39.186684z" fill="#385593" /><path d="M375.458508 240.828272c0-4.00858-2.435119-8.654038-5.432189-10.389841l-123.816434-71.480108c-2.99707-1.735803-5.432188 0.11239-5.432188 4.108483s2.435119 8.654038 5.432188 10.389841l123.816434 71.46762c2.99707 1.735803 5.432188-0.099902 5.432189-4.095995zM428.082054 271.198577c0-3.996093-2.435119-8.64155-5.432189-10.377354l-33.304935-19.231196c-2.99707-1.723315-5.432188 0.11239-5.432188 4.108483 0 4.00858 2.435119 8.654038 5.432188 10.389841l33.304935 19.218708c2.99707 1.735803 5.432188-0.099902 5.432189-4.108482zM443.766717 388.608775l-5.294822-8.691502-45.580433 83.455898 5.307311 8.691502 45.567944-83.455898z" fill="#F2F2F2" /></svg>