<?xml version="1.0" encoding="utf-8"?>
<!-- Uploaded to: SVG Repo, www.svgrepo.com, Generator: SVG Repo Mixer Tools -->
<svg width="800px" height="800px" viewBox="0 0 1024 1024" class="icon"  version="1.1" xmlns="http://www.w3.org/2000/svg"><path d="M258.633143 696.194612c135.857633-70.509714 356.45649-70.509714 492.314122 0 135.857633 70.509714 135.857633 184.988735 0 255.498449-135.857633 70.509714-356.45649 70.509714-492.314122 0-135.857633-70.509714-135.857633-184.988735 0-255.498449z" fill="#D0DBF7" /><path d="M298.506449 741.814857L156.734694 668.233143v164.153469l141.771755 73.581715v-164.15347zM711.053061 727.123592l141.792653-73.581714v164.153469l-141.792653 73.581714v-164.153469zM711.053061 415.806694l141.792653-73.581714v164.153469l-141.792653 73.581714v-164.153469z" fill="#D0DBF7" /><path d="M258.633143 532.208327c135.857633-70.509714 356.45649-70.509714 492.314122 0 135.857633 70.509714 135.857633 184.988735 0 255.498449-135.857633 70.509714-356.45649 70.509714-492.314122 0-135.857633-70.509714-135.857633-184.988735 0-255.498449z" fill="#E6ECFF" /><path d="M298.506449 569.720163L156.734694 496.138449v164.153469l141.771755 73.560817v-164.132572zM711.053061 571.475592l141.792653-73.581714v164.153469l-141.792653 73.560816v-164.132571z" fill="#E6ECFF" /><path d="M258.633143 368.222041c135.857633-70.509714 356.45649-70.509714 492.314122 0 135.857633 70.509714 135.857633 184.988735 0 255.498449-135.857633 70.509714-356.45649 70.509714-492.314122 0-135.857633-70.509714-135.857633-184.988735 0-255.498449z" fill="#D0DBF7" /><path d="M298.506449 405.566694L156.734694 331.98498v164.153469l141.771755 73.581714v-164.153469z" fill="#D0DBF7" /><path d="M298.506449 264.693551L156.734694 191.111837V355.265306l141.771755 73.581714v-164.153469zM711.053061 249.020082l141.792653-73.581715v157.152653l-141.792653 73.560817v-157.131755z" fill="#E6ECFF" /><path d="M258.633143 204.235755c135.857633-70.509714 356.45649-70.509714 492.314122 0 135.857633 70.509714 135.857633 184.988735 0 255.498449-135.857633 70.509714-356.45649 70.509714-492.314122 0-135.857633-70.509714-135.857633-184.988735 0-255.498449z" fill="#E6ECFF" /><path d="M258.633143 52.871837c135.857633-70.488816 356.45649-70.488816 492.314122 0 135.857633 70.509714 135.857633 185.009633 0 255.519347-135.857633 70.509714-356.45649 70.509714-492.314122 0-135.857633-70.509714-135.857633-185.009633 0-255.519347z" fill="#D0DBF7" /><path d="M587.608816 435.388082a19.163429 19.163429 0 0 0-19.14253-19.142531h-130.25698a19.142531 19.142531 0 0 0 0 38.264163h130.25698c10.574367 0 19.142531-8.568163 19.14253-19.121632zM587.608816 588.235755a19.142531 19.142531 0 0 0-19.14253-19.142531h-130.25698a19.142531 19.142531 0 0 0 0 38.264164h130.25698c10.574367 0 19.142531-8.568163 19.14253-19.121633zM587.608816 761.312653a19.142531 19.142531 0 0 0-19.14253-19.142531h-130.25698a19.142531 19.142531 0 0 0 0 38.264164h130.25698c10.574367 0 19.142531-8.568163 19.14253-19.121633zM587.608816 916.208327a19.163429 19.163429 0 0 0-19.14253-19.142531h-130.25698a19.142531 19.142531 0 0 0 0 38.264163h130.25698c10.574367 0 19.142531-8.568163 19.14253-19.121632z" fill="#BECCED" /></svg>