<?xml version="1.0" encoding="utf-8"?>
<!-- Uploaded to: SVG Repo, www.svgrepo.com, Generator: SVG Repo Mixer Tools -->
<svg width="800px" height="800px" viewBox="0 0 1024 1024" class="icon"  version="1.1" xmlns="http://www.w3.org/2000/svg"><path d="M172.261392 465.745702l-0.539234 376.625021 326.285617 180.627064v-375.786213L172.261392 465.745702z" fill="#4762AF" /><path d="M743.081477 435.363404l50.121532 15.817532-41.815149 39.734468-8.306383-55.552zM235.558754 438.021447l-25.469277 23.895149 21.776341 20.153191 3.692936-44.04834z" fill="#6982C8" /><path d="M521.750414 667.549957c-13.105021-7.271489-32.768-8.170213-43.890383-1.998978L178.966414 831.400851c-11.122383 6.171234-9.510128 17.081191 3.594893 24.352681l291.70383 161.857362c13.105021 7.271489 32.768 8.164766 43.890383 1.998978l298.893617-165.849872c11.122383-6.171234 9.510128-17.081191-3.594894-24.352681L521.750414 667.549957z" fill="#4762AF" /><path d="M532.720286 13.148596c0-11.035234-6.737702-16.122553-15.044085-11.362043L246.909903 157.107745c-8.300936 4.760511-15.044085 17.582298-15.044085 28.617532v596.098723c0 11.029787 6.743149 16.122553 15.044085 11.362043l270.766298-155.321192c8.306383-4.760511 15.044085-17.587745 15.044085-28.617532V13.148596z" fill="#C4CADD" /><path d="M526.717903 0.604596l14.542979 8.279149-15.937362 7.473021-6.955574-7.974128L526.717903 0.604596z" fill="#C4CADD" /><path d="M546.560626 21.090043c0-11.035234-6.743149-16.128-15.044085-11.36749L260.750243 165.043745c-8.300936 4.760511-15.044085 17.587745-15.044085 28.622978v596.093277c0 11.035234 6.743149 16.128 15.044085 11.362043l270.766298-155.315745c8.300936-4.765957 15.044085-17.587745 15.044085-28.622979V21.090043z" fill="#848BA6" /><path d="M602.842499 75.389277c0-11.035234-6.743149-16.128-15.044085-11.362043L317.032116 219.342979c-8.300936 4.765957-15.044085 17.587745-15.044085 28.622978v596.093277c0 11.035234 6.743149 16.128 15.044085 11.367489l270.766298-155.321191c8.300936-4.760511 15.044085-17.587745 15.044085-28.622979V75.389277z" fill="#C4CADD" /><path d="M596.840116 62.845277l14.542978 8.279149-15.937361 7.467574-6.955575-7.968681 8.349958-7.778042z" fill="#C4CADD" /><path d="M616.682839 83.325277c0-11.029787-6.743149-16.122553-15.044085-11.362043L330.872456 227.284426c-8.306383 4.760511-15.044085 17.587745-15.044085 28.617531v596.098724c0 11.035234 6.737702 16.128 15.044085 11.362042l270.766298-155.315744c8.300936-4.765957 15.044085-17.587745 15.044085-28.622979V83.325277z" fill="#848BA6" /><path d="M672.964711 137.629957c0-11.035234-6.743149-16.128-15.044085-11.362042L387.154329 281.58366c-8.306383 4.765957-15.044085 17.587745-15.044086 28.622978v596.093277c0 11.035234 6.737702 16.128 15.044086 11.367489l270.766297-155.321191c8.300936-4.760511 15.044085-17.587745 15.044085-28.622979V137.629957z" fill="#C4CADD" /><path d="M666.956882 125.080511l14.542978 8.284595-15.937361 7.467575-6.950128-7.974128 8.344511-7.778042z" fill="#C4CADD" /><path d="M686.799605 145.565957c0-11.029787-6.737702-16.122553-15.038638-11.362042L400.989222 289.525106c-8.300936 4.760511-15.038638 17.587745-15.038638 28.617532v596.098724c0 11.035234 6.737702 16.122553 15.038638 11.362042l270.771745-155.321191c8.300936-4.760511 15.038638-17.582298 15.038638-28.617532V145.565957z" fill="#848BA6" /><path d="M743.081477 199.870638c0-11.035234-6.737702-16.128-15.038638-11.367489L457.271094 343.82434c-8.300936 4.760511-15.038638 17.587745-15.038638 28.622979v596.093277c0 11.035234 6.737702 16.128 15.038638 11.362042l270.771745-155.315744c8.300936-4.765957 15.038638-17.587745 15.038638-28.622979V199.870638z" fill="#C4CADD" /><path d="M737.079094 187.321191l14.542979 8.284596-15.937362 7.467575-6.955574-7.974128 8.349957-7.778043z" fill="#C4CADD" /><path d="M756.921818 207.806638c0-11.035234-6.737702-16.122553-15.044085-11.362042L471.111435 351.765787c-8.300936 4.760511-15.044085 17.582298-15.044085 28.617532v596.098724c0 11.029787 6.743149 16.122553 15.044085 11.362042l270.766298-155.321191c8.306383-4.760511 15.044085-17.587745 15.044085-28.617532V207.806638z" fill="#848BA6" /><path d="M496.215775 642.592681l327.511149-178.088851 0.566468 379.40834-328.077617-69.011064v-132.308425z" fill="#4762AF" /><path d="M465.670073 636.43234l69.893447-2.897702v376.412596s-8.900085 7.690894-22.168511 11.645277c-4.33566 1.290894-9.150638 1.824681-14.254298 2.037106-9.984 0.408511-20.790468-4.057872-32.223319-10.092936l-1.247319-377.104341z" fill="#6982C8" /><path d="M466.732201 641.056681L225.286073 501.656511v80.498383l241.446128 139.40017v-80.498383zM466.732201 926.093617L225.286073 786.693447v83.412425l241.446128 139.400171v-83.412426z" fill="#4762AF" /><path d="M466.732201 705.16017l-19.477787-11.247659v269.361021l19.477787 11.247659v-269.361021z" fill="#4762AF" /><path d="M231.865818 422.432681v24.989957l-6.634213 3.829107c-9.733447 5.621106-8.513362 15.458043 2.728851 21.945191l250.264511 144.48749c11.242213 6.492596 28.274383 7.200681 38.00783 1.579574l255.722212-147.641191c9.733447-5.621106 8.513362-15.452596-2.728851-21.945192l-12.30434-7.102638v-26.662128l56.59234 34.347575c13.083234 7.554723 14.510298 18.998468 3.17549 25.540085l-297.570043 171.797787c-11.329362 6.541617-31.144851 5.719149-44.228085-1.830128L183.672456 477.630638c-13.083234-7.554723-14.504851-18.993021-3.175489-25.534638l51.368851-29.663319z" fill="#6982C8" /><path d="M535.361988 775.701787v182.805787l250.694809-127.656851-250.694809-55.148936zM302.124201 827.833191v-24.227404l-20.708766 12.27166 20.708766 11.955744z" fill="#4762AF" /><path d="M316.503775 795.620766l123.332085-73.166979 0.838809 56.16749-111.812085 64.561021-12.358809-7.04817v-40.513362zM387.007265 828.328851l53.623829-30.95966v110.902469l-53.623829-30.954213v-48.988596z" fill="#848BA6" /><path d="M245.967605 597.416851l-14.101787-7.03183v199.293277l13.84034 11.590808 0.261447-203.852255z" fill="#C4CADD" /><path d="M245.967605 597.416851l76.625702 43.835915-76.625702 44.244425v-88.08034zM245.967605 705.525106v29.254809l118.544341-69.021958-24.832-14.336-93.712341 54.103149z" fill="#848BA6" /><path d="M302.086073 629.716426v197.817191l14.417702 8.32817v-197.926127l-14.417702-8.219234zM372.23552 670.218894v198.17668l14.771745 8.529703v-198.443575l-14.771745-8.262808z" fill="#C4CBDC" /><path d="M220.471094 697.943149l12.233532 7.059064v62.551149c0 10.937191 6.612426 23.628255 14.760851 28.334298l178.453788 103.031829c8.142979 4.700596 14.755404-0.359489 14.755404-11.291234v-62.551149l12.233532 7.059064v71.876085c0 12.217191-7.391319 17.870979-16.492936 12.614809l-199.451234-115.150979c-9.101617-5.25617-16.492936-19.43966-16.492937-31.662298v-71.870638z" fill="#6982C8" /><path d="M452.908201 832.63183l-12.233532-7.064511v-95.923745c0-10.931745-6.612426-23.628255-14.755404-28.328851l-178.453788-103.031829c-8.148426-4.706043-14.760851 0.354043-14.760851 11.285787v95.929191l-12.233532-7.06451v-105.243234c0-12.222638 7.391319-17.876426 16.492937-12.620256l199.451234 115.150979c9.101617 5.25617 16.492936 19.445106 16.492936 31.662298v105.248681z" fill="#6982C8" /><path d="M549.360286 891.827745v-141.932936s-6.601532-30.08817 43.699745-50.301277l196.433702-113.408s10.446979-9.624511 23.306893-0.849702c12.859915 8.769362 28.601191 16.514723 28.601192 16.514723s-227.878128 133.61566-229.653787 132.59166c-1.781106-1.029447-19.684766 5.670128-19.684766 34.124255v166.067745l-32.250554-18.617192s-10.452426-9.23234-10.452425-24.189276z" fill="#273F73" /><path d="M847.671094 614.89566c0-10.893617-6.634213-15.904681-14.798978-11.193192l-229.681022 132.608c-8.170213 4.716936-14.798979 17.386213-14.798978 28.27983v157.864851c0 10.88817 6.628766 15.904681 14.798978 11.187745l229.681022-132.608c8.164766-4.711489 14.798979-17.386213 14.798978-28.274383v-157.864851z" fill="#677FC4" /><path d="M806.711094 667.609872c0-7.424-4.520851-10.839149-10.087489-7.625532l-146.965787 84.850383c-5.566638 3.213617-10.087489 11.846809-10.087489 19.270809s4.520851 10.844596 10.087489 7.625532l146.965787-84.850383c5.566638-3.213617 10.087489-11.846809 10.087489-19.270809zM806.711094 719.659574c0-7.424-4.520851-10.839149-10.087489-7.625531l-146.965787 84.850383c-5.566638 3.213617-10.087489 11.846809-10.087489 19.270808s4.520851 10.844596 10.087489 7.625532l146.965787-84.850383c5.566638-3.213617 10.087489-11.846809 10.087489-19.270809zM806.711094 769.955404c0-7.424-4.520851-10.839149-10.087489-7.625532l-146.965787 84.850383c-5.566638 3.213617-10.087489 11.852255-10.087489 19.276256s4.520851 10.839149 10.087489 7.625532l146.965787-84.850383c5.566638-3.213617 10.087489-11.852255 10.087489-19.276256z" fill="#71E0FF" /></svg>