<?xml version="1.0" standalone="no"?><!DOCTYPE svg PUBLIC "-//W3C//DTD SVG 1.1//EN" "http://www.w3.org/Graphics/SVG/1.1/DTD/svg11.dtd"><svg t="1663902596358" class="icon" style="width:20px;height:20px;" viewBox="0 0 1024 1024" version="1.1" xmlns="http://www.w3.org/2000/svg" p-id="4084" xmlns:xlink="http://www.w3.org/1999/xlink" width="1024" height="1024"><path d="M320 306.6c0 7.4-6 13.4-13.4 13.4l-101 0c-7.4 0-13.4-6-13.4-13.4l0-101c0-7.4 6-13.4 13.4-13.4l101 0c7.4 0 13.4 6 13.4 13.4L320 306.6z" p-id="4085"></path><path d="M576 306.6c0 7.4-6 13.4-13.4 13.4l-101 0c-7.4 0-13.4-6-13.4-13.4l0-101c0-7.4 6-13.4 13.4-13.4l101 0c7.4 0 13.4 6 13.4 13.4L576 306.6z" p-id="4086"></path><path d="M832 306.6c0 7.4-6 13.4-13.4 13.4l-101 0c-7.4 0-13.4-6-13.4-13.4l0-101c0-7.4 6-13.4 13.4-13.4l101 0c7.4 0 13.4 6 13.4 13.4L832 306.6z" p-id="4087"></path><path d="M320 562.6c0 7.4-6 13.4-13.4 13.4l-101 0c-7.4 0-13.4-6-13.4-13.4l0-101c0-7.4 6-13.4 13.4-13.4l101 0c7.4 0 13.4 6 13.4 13.4L320 562.6z" p-id="4088"></path><path d="M576 562.6c0 7.4-6 13.4-13.4 13.4l-101 0c-7.4 0-13.4-6-13.4-13.4l0-101c0-7.4 6-13.4 13.4-13.4l101 0c7.4 0 13.4 6 13.4 13.4L576 562.6z" p-id="4089"></path><path d="M832 562.6c0 7.4-6 13.4-13.4 13.4l-101 0c-7.4 0-13.4-6-13.4-13.4l0-101c0-7.4 6-13.4 13.4-13.4l101 0c7.4 0 13.4 6 13.4 13.4L832 562.6z" p-id="4090"></path><path d="M320 818.6c0 7.4-6 13.4-13.4 13.4l-101 0c-7.4 0-13.4-6-13.4-13.4l0-101c0-7.4 6-13.4 13.4-13.4l101 0c7.4 0 13.4 6 13.4 13.4L320 818.6z" p-id="4091"></path><path d="M576 818.6c0 7.4-6 13.4-13.4 13.4l-101 0c-7.4 0-13.4-6-13.4-13.4l0-101c0-7.4 6-13.4 13.4-13.4l101 0c7.4 0 13.4 6 13.4 13.4L576 818.6z" p-id="4092"></path><path d="M832 818.6c0 7.4-6 13.4-13.4 13.4l-101 0c-7.4 0-13.4-6-13.4-13.4l0-101c0-7.4 6-13.4 13.4-13.4l101 0c7.4 0 13.4 6 13.4 13.4L832 818.6z" p-id="4093"></path></svg><?xml version="1.0" standalone="no"?><!DOCTYPE svg PUBLIC "-//W3C//DTD SVG 1.1//EN" "http://www.w3.org/Graphics/SVG/1.1/DTD/svg11.dtd"><svg t="1652149253074" class="icon" viewBox="0 0 1024 1024" version="1.1" xmlns="http://www.w3.org/2000/svg" p-id="2678" xmlns:xlink="http://www.w3.org/1999/xlink" width="200" height="200"><defs><style type="text/css">@font-face { font-family: feedback-iconfont; src: url("//at.alicdn.com/t/font_1031158_u69w8yhxdu.woff2?t=1630033759944") format("woff2"), url("//at.alicdn.com/t/font_1031158_u69w8yhxdu.woff?t=1630033759944") format("woff"), url("//at.alicdn.com/t/font_1031158_u69w8yhxdu.ttf?t=1630033759944") format("truetype"); }</style></defs><path d="M512 505.6c-2.133333 0-4.266667 0-8.533333-2.133333L298.666667 426.666667v298.666666h426.666666V426.666667l-204.8 76.8c-4.266667 0-6.4 2.133333-8.533333 2.133333z" p-id="2679"></path><path d="M298.666667 379.733333l213.333333 81.066667 213.333333-81.066667V298.666667H298.666667z" p-id="2680"></path><path d="M512 0C228.266667 0 0 228.266667 0 512s228.266667 512 512 512 512-228.266667 512-512S795.733333 0 512 0z m256 725.333333c0 23.466667-19.2 42.666667-42.666667 42.666667H298.666667c-23.466667 0-42.666667-19.2-42.666667-42.666667V298.666667c0-23.466667 19.2-42.666667 42.666667-42.666667h426.666666c23.466667 0 42.666667 19.2 42.666667 42.666667v426.666666z" p-id="2681"></path></svg>