<?xml version="1.0" encoding="utf-8"?>
<!-- Uploaded to: SVG Repo, www.svgrepo.com, Generator: SVG Repo Mixer Tools -->
<svg width="800px" height="800px" viewBox="0 0 1024 1024" class="icon"  version="1.1" xmlns="http://www.w3.org/2000/svg"><path d="M541.279573 529.974613c-17.44896-10.07616-43.88864-11.175253-59.00288-2.450773L85.2992 756.722347c-15.121067 8.72448-13.216427 23.988907 4.232533 34.065066l388.5056 224.303787c17.455787 10.07616 43.895467 11.175253 59.009707 2.450773l396.977493-229.198506c15.11424-8.72448 13.216427-23.988907-4.23936-34.065067l-388.5056-224.303787z" fill="#4762AF" /><path d="M75.093333 249.883307v521.632426l434.56512 251.890347V501.773653L75.093333 249.883307z" fill="#4762AF" /><path d="M507.262293 495.363413l436.927147-247.207253v524.376747L507.262293 679.0144V495.363413z" fill="#4762AF" /><path d="M541.279573 8.33536C523.830613-1.7408 497.390933-2.833067 482.276693 5.891413L85.2992 235.083093c-15.121067 8.731307-13.216427 23.995733 4.232533 34.071894l388.5056 224.303786c17.455787 10.07616 43.895467 11.168427 59.009707 2.443947l396.977493-229.19168c15.11424-8.731307 13.216427-23.995733-4.23936-34.071893L541.279573 8.33536zM117.848747 430.30528c0 17.005227 10.349227 36.78208 23.10144 44.148053l179.042986 103.36256c12.752213 7.365973 23.10144-0.464213 23.10144-17.462613 0-17.005227-10.349227-36.78208-23.10144-44.148053L140.950187 412.842667c-12.752213-7.365973-23.10144 0.464213-23.10144 17.462613z" fill="#6D8ACA" /><path d="M429.458773 579.413333c14.72512 8.4992 26.678613 29.20448 26.678614 46.20288 0 17.005227-11.953493 23.906987-26.678614 15.407787-14.718293-8.506027-26.678613-29.211307-26.678613-46.209707 0-17.005227 11.96032-23.906987 26.678613-15.40096z" fill="#60E000" /><path d="M117.848747 562.56512c0 17.005227 10.349227 36.78208 23.10144 44.148053l179.042986 103.369387c12.752213 7.359147 23.10144-0.464213 23.10144-17.46944 0-16.9984-10.349227-36.78208-23.10144-44.141227L140.950187 545.102507c-12.752213-7.365973-23.10144 0.464213-23.10144 17.462613z" fill="#6D8ACA" /><path d="M429.458773 711.673173c14.72512 8.4992 26.678613 29.20448 26.678614 46.209707 0 16.9984-11.953493 23.90016-26.678614 15.40096-14.718293-8.4992-26.678613-29.20448-26.678613-46.209707 0-16.9984 11.96032-23.90016 26.678613-15.40096z" fill="#60E000" /><path d="M117.848747 694.831787c0 16.9984 10.349227 36.78208 23.10144 44.141226l179.042986 103.369387c12.752213 7.359147 23.10144-0.464213 23.10144-17.46944 0-16.9984-10.349227-36.78208-23.10144-44.141227L140.950187 677.362347c-12.752213-7.359147-23.10144 0.464213-23.10144 17.46944z" fill="#6D8ACA" /><path d="M429.458773 843.933013c14.72512 8.4992 26.678613 29.20448 26.678614 46.209707 0 16.9984-11.953493 23.90016-26.678614 15.40096-14.718293-8.4992-26.678613-29.20448-26.678613-46.209707 0-16.9984 11.96032-23.90016 26.678613-15.40096z" fill="#60E000" /></svg>