<svg width="1em" height="1em" viewBox="0 0 10 10" fill="none" xmlns="http://www.w3.org/2000/svg">
<path d="M3.91242 9.46382C3.91242 9.57428 3.82288 9.66382 3.71242 9.66382H2.35075C2.2403 9.66382 2.15075 9.57428 2.15075 9.46382V3.55962C2.15075 3.44916 2.06121 3.35962 1.95075 3.35962H0.539905C0.354312 3.35962 0.268806 3.12879 0.40961 3.00788L3.58212 0.283626C3.71182 0.172253 3.91242 0.264405 3.91242 0.43536V9.46382ZM6.08758 0.567715C6.08758 0.457258 6.17712 0.367716 6.28758 0.367716H7.64925C7.7597 0.367716 7.84925 0.457259 7.84925 0.567716V6.4411C7.84925 6.55156 7.93879 6.6411 8.04925 6.6411H9.46001C9.64561 6.6411 9.73111 6.87195 9.59029 6.99285L6.41786 9.71645C6.28816 9.8278 6.08758 9.73565 6.08758 9.5647V0.567715Z" fill="url(#paint0_linear_124_16806)"/>
<defs>
<linearGradient id="paint0_linear_124_16806" x1="5" y1="0" x2="5" y2="10" gradientUnits="userSpaceOnUse">
<stop stop-color="#5A85FF"/>
<stop offset="1" stop-color="#8DD8FF"/>
</linearGradient>
</defs>
</svg>
