<svg width="1em" height="1em" viewBox="0 0 10 10" fill="none" xmlns="http://www.w3.org/2000/svg">
<path fill-rule="evenodd" clip-rule="evenodd" d="M1 0H2.5V1.25H1.25V2.5H0V1C0 0.447715 0.447715 0 1 0ZM0 7.5V9C0 9.55229 0.447715 10 1 10H2.5V8.75H1.25V7.5H0ZM8.75 7.5V8.75H7.5V10H9C9.55229 10 10 9.55228 10 9V7.5H8.75ZM10 2.5V1C10 0.447715 9.55228 0 9 0H7.5V1.25H8.75V2.5H10Z" fill="url(#paint0_linear_124_16807)"/>
<rect x="2.5" y="3.125" width="5" height="3.75" fill="url(#paint1_linear_124_16807)"/>
<defs>
<linearGradient id="paint0_linear_124_16807" x1="5" y1="0" x2="5" y2="10" gradientUnits="userSpaceOnUse">
<stop stop-color="#4F84FF"/>
<stop offset="1" stop-color="#85CBFF"/>
</linearGradient>
<linearGradient id="paint1_linear_124_16807" x1="5" y1="3.125" x2="5" y2="6.875" gradientUnits="userSpaceOnUse">
<stop stop-color="#4F84FF"/>
<stop offset="1" stop-color="#85CBFF"/>
</linearGradient>
</defs>
</svg>
