<svg width="1em" height="1em" viewBox="0 0 10 10" fill="none" xmlns="http://www.w3.org/2000/svg">
<path d="M5.56845 8.8409C3.06335 8.78963 1.86719 8.05799 2.06279 6.48243C2.1538 5.75105 2.64549 5.3214 3.34457 5.16041C3.67173 5.08909 4.00806 5.06954 4.34128 5.10247C4.40203 5.10811 4.44843 5.11401 4.47689 5.11837L4.51586 5.12631C4.64379 5.15574 4.77263 5.18104 4.90218 5.20219C5.26786 5.2651 5.63914 5.28941 6.0099 5.27474C6.8046 5.23219 7.21015 4.97429 7.23092 4.41672C7.25424 3.79429 6.76332 3.29619 5.86659 2.91832C5.52815 2.77793 5.17843 2.66645 4.82117 2.58506C4.70325 2.55755 4.58482 2.53328 4.46587 2.51226C4.30323 2.94847 3.9867 3.31016 3.57591 3.5292C3.16512 3.74824 2.68841 3.80952 2.23557 3.70149C1.90324 3.61651 1.60053 3.44214 1.36029 3.1973C1.12004 2.95245 0.951447 2.64649 0.872793 2.3126C0.794138 1.97872 0.808429 1.62967 0.914116 1.30333C1.0198 0.976995 1.21285 0.685836 1.4723 0.461451C1.73176 0.237065 2.04771 0.0880244 2.38588 0.0305017C2.72404 -0.0270211 3.07151 0.00917138 3.39056 0.135152C3.70961 0.261132 3.98807 0.472088 4.19571 0.745127C4.40335 1.01817 4.53225 1.34286 4.56841 1.68397C4.6812 1.70269 4.83374 1.73217 5.01524 1.77421C5.42003 1.86601 5.81625 1.99216 6.1996 2.15131C7.38191 2.64966 8.1156 3.39463 8.07638 4.4462C8.03639 5.53187 7.23425 6.04253 6.0563 6.10533C5.62418 6.12373 5.19132 6.09614 4.76503 6.02304C4.61925 5.99997 4.47398 5.9716 4.32923 5.93793C4.30731 5.93532 4.28534 5.9331 4.26335 5.93127C4.02033 5.90687 3.77501 5.92018 3.53606 5.97075C3.15153 6.05893 2.94311 6.24146 2.90056 6.58267C2.78725 7.49504 3.47915 7.94443 5.42694 8.00416C5.44492 7.65558 5.5586 7.3187 5.75548 7.03049C5.95237 6.74229 6.22485 6.51389 6.54303 6.37039C6.8612 6.22689 7.21277 6.17383 7.55912 6.21703C7.90548 6.26023 8.23323 6.39802 8.50641 6.61528C8.77959 6.83254 8.98763 7.12086 9.10769 7.4486C9.22775 7.77634 9.25519 8.13082 9.187 8.47314C9.11881 8.81545 8.95763 9.13235 8.72114 9.38907C8.48465 9.64578 8.18201 9.83237 7.84643 9.92836C7.39921 10.0556 6.92094 10.0153 6.50129 9.81515C6.08164 9.61495 5.74941 9.26855 5.56691 8.8409H5.56845Z" fill="url(#paint0_linear_124_16804)"/>
<defs>
<linearGradient id="paint0_linear_124_16804" x1="5.02318" y1="0.00390625" x2="5.02318" y2="10.0013" gradientUnits="userSpaceOnUse">
<stop stop-color="#497DFF"/>
<stop offset="1" stop-color="#8CD5FF"/>
</linearGradient>
</defs>
</svg>
