<svg width="1em" height="1em" viewBox="0 0 10 10" fill="none" xmlns="http://www.w3.org/2000/svg">
<path d="M5.51961 6.8937V10H4.48V6.8937H1.76732C1.65823 6.8937 1.56223 6.85372 1.48369 6.77237C1.40522 6.69504 1.3621 6.5915 1.36369 6.48421C1.36369 5.95891 1.52769 5.48566 1.85895 5.06411C2.18986 4.64428 2.56258 4.43334 2.97893 4.43334V1.64277C2.75966 1.64277 2.57167 1.56142 2.41022 1.39873C2.25355 1.24349 2.16738 1.0362 2.17022 0.821384C2.17022 0.598718 2.25022 0.407762 2.41022 0.244037C2.56912 0.0827244 2.7593 0 2.97893 0H7.01959C7.23885 0 7.42685 0.0813456 7.5883 0.244037C7.74721 0.406728 7.82866 0.598718 7.82866 0.821384C7.82866 1.04405 7.74866 1.23501 7.58867 1.39873C7.4283 1.5628 7.23885 1.64277 7.01959 1.64277V4.43196C7.43594 4.43196 7.81012 4.64291 8.13956 5.06273C8.46631 5.47151 8.64098 5.97137 8.63628 6.48421C8.63628 6.59486 8.59701 6.6924 8.51665 6.77237C8.43665 6.85234 8.34211 6.8937 8.23302 6.8937H5.51998H5.51961Z" fill="url(#paint0_linear_124_16803)"/>
<defs>
<linearGradient id="paint0_linear_124_16803" x1="5.00001" y1="0" x2="5.00001" y2="10" gradientUnits="userSpaceOnUse">
<stop stop-color="#5A85FF"/>
<stop offset="1" stop-color="#8DD8FF"/>
</linearGradient>
</defs>
</svg>
