<svg width="1em" height="1em" viewBox="0 0 10 10" fill="none" xmlns="http://www.w3.org/2000/svg">
<path d="M4.01211 4.50621L2.7769 5.74077C2.712 5.80565 2.66051 5.88268 2.62538 5.96747C2.59025 6.05225 2.57217 6.14313 2.57217 6.2349C2.57217 6.32668 2.59025 6.41755 2.62538 6.50234C2.66051 6.58712 2.712 6.66416 2.7769 6.72904L3.27085 7.223C3.33573 7.28791 3.41276 7.3394 3.49754 7.37453C3.58232 7.40966 3.67319 7.42774 3.76496 7.42774C3.85674 7.42774 3.94761 7.40966 4.03239 7.37453C4.11717 7.3394 4.1942 7.28791 4.25908 7.223L5.49394 5.98775C5.6237 6.1175 5.72663 6.27155 5.79686 6.44109C5.86708 6.61063 5.90323 6.79234 5.90323 6.97585C5.90323 7.15935 5.86708 7.34106 5.79686 7.5106C5.72663 7.68014 5.6237 7.83419 5.49394 7.96394L3.76479 9.69316C3.56827 9.88963 3.30176 10 3.02387 10C2.74599 10 2.47948 9.88963 2.28296 9.69316L0.306832 7.71696C0.110368 7.52043 0 7.25391 0 6.97602C0 6.69813 0.110368 6.43161 0.306832 6.23508L2.03599 4.50586C2.16574 4.3761 2.31978 4.27317 2.48931 4.20294C2.65884 4.13271 2.84055 4.09657 3.02405 4.09657C3.20755 4.09657 3.38925 4.13271 3.55879 4.20294C3.72832 4.27317 3.88236 4.3761 4.01211 4.50586V4.50621ZM5.98789 5.49414L7.2231 4.25923C7.288 4.19435 7.33949 4.11732 7.37462 4.03253C7.40975 3.94775 7.42783 3.85687 7.42783 3.7651C7.42783 3.67332 7.40975 3.58245 7.37462 3.49766C7.33949 3.41288 7.288 3.33584 7.2231 3.27096L6.72915 2.777C6.66428 2.71209 6.58724 2.6606 6.50246 2.62547C6.41768 2.59034 6.32681 2.57226 6.23504 2.57226C6.14326 2.57226 6.05239 2.59034 5.96761 2.62547C5.88283 2.6606 5.8058 2.71209 5.74092 2.777L4.50606 4.01225C4.3763 3.8825 4.27337 3.72845 4.20314 3.55891C4.13292 3.38937 4.09677 3.20766 4.09677 3.02415C4.09677 2.84065 4.13292 2.65894 4.20314 2.4894C4.27337 2.31986 4.3763 2.16581 4.50606 2.03606L6.23521 0.306843C6.43173 0.110371 6.69824 0 6.97613 0C7.25401 0 7.52052 0.110371 7.71704 0.306843L9.69317 2.28304C9.88963 2.47957 10 2.74609 10 3.02398C10 3.30187 9.88963 3.56839 9.69317 3.76492L7.96401 5.49414C7.83426 5.6239 7.68022 5.72683 7.51069 5.79706C7.34116 5.86729 7.15945 5.90343 6.97595 5.90343C6.79245 5.90343 6.61075 5.86729 6.44121 5.79706C6.27168 5.72683 6.11764 5.6239 5.98789 5.49414ZM3.51817 5.9881L5.98789 3.51829C6.05339 3.45274 6.14225 3.4159 6.23491 3.41586C6.32758 3.41583 6.41646 3.45261 6.48201 3.51812C6.54755 3.58362 6.5844 3.67248 6.58443 3.76515C6.58446 3.85782 6.54768 3.9467 6.48218 4.01225L4.01211 6.48206C3.94661 6.54761 3.85775 6.58445 3.76509 6.58449C3.67242 6.58452 3.58354 6.54774 3.51799 6.48223C3.45245 6.41673 3.4156 6.32787 3.41557 6.2352C3.41554 6.14253 3.45232 6.05365 3.51782 5.9881H3.51817Z" fill="url(#paint0_linear_124_16775)"/>
<defs>
<linearGradient id="paint0_linear_124_16775" x1="5" y1="0" x2="5" y2="10" gradientUnits="userSpaceOnUse">
<stop stop-color="#5A85FF"/>
<stop offset="1" stop-color="#8DD8FF"/>
</linearGradient>
</defs>
</svg>
