<svg width="1em" height="1em" viewBox="0 0 10 10" fill="none" xmlns="http://www.w3.org/2000/svg">
<path d="M1.31822 4.16667H2.54549V2.5C2.54549 1.11458 3.63981 0 5.00003 0C6.36026 0 7.45458 1.11458 7.45458 2.5V4.16667H8.68185C8.90685 4.16667 9.09094 4.35417 9.09094 4.58333V9.58333C9.09094 9.8125 8.90685 10 8.68185 10H1.31822C1.09322 10 0.909124 9.8125 0.909124 9.58333V4.58333C0.909124 4.35417 1.09322 4.16667 1.31822 4.16667ZM5.00003 7.91667C5.45003 7.91667 5.81822 7.54167 5.81822 7.08333C5.81822 6.625 5.45003 6.25 5.00003 6.25C4.55003 6.25 4.18185 6.625 4.18185 7.08333C4.18185 7.54167 4.55003 7.91667 5.00003 7.91667ZM3.36367 4.16667H6.6364V2.5C6.6364 1.58333 5.90003 0.833333 5.00003 0.833333C4.10003 0.833333 3.36367 1.58333 3.36367 2.5V4.16667Z" fill="url(#paint0_linear_124_16805)"/>
<defs>
<linearGradient id="paint0_linear_124_16805" x1="5.00003" y1="0" x2="5.00003" y2="10" gradientUnits="userSpaceOnUse">
<stop stop-color="#4D82FF"/>
<stop offset="1" stop-color="#88CFFF"/>
</linearGradient>
</defs>
</svg>
