<?xml version="1.0" encoding="utf-8"?>
<!-- Uploaded to: SVG Repo, www.svgrepo.com, Generator: SVG Repo Mixer Tools -->
<svg width="800px" height="800px" viewBox="0 -124.5 1273 1273" class="icon"  version="1.1" xmlns="http://www.w3.org/2000/svg"><path d="M773.056709 326.746188c-78.182981-45.138563-196.661332-50.064783-264.355339-10.959455L45.719747 583.103339c-67.721683 39.077653-59.225338 107.463545 18.957643 152.629784l425.038662 245.37002c78.182981 45.138563 196.633656 50.064783 264.355339 10.959455l462.981623-267.28893c67.721683-39.105328 59.197662-107.49122-18.985318-152.629784l-425.010987-245.397696z" fill="#4762AF" /><path d="M631.38638 728.814275L0 364.301694v283.949516c0 27.675391 16.854313 59.834196 37.583182 71.817641l468.516701 270.499276c69.133128 39.93559 125.286497-2.518461 125.286497-94.705189v-167.048663zM1262.772761 369.089537L631.38638 733.629793v164.640904c0 90.85831 55.323107 132.675827 123.487597 93.349095l470.841435-271.85537c20.452114-11.817392 37.057349-43.533391 37.057349-70.793651V369.089537z" fill="#4762AF" /><path d="M773.056709 37.372295C694.873728-7.793944 576.395378-12.692488 508.70137 26.41284L45.719747 293.701771c-67.721683 39.105328-59.225338 107.49122 18.957643 152.629783l425.038662 245.397696c78.182981 45.138563 196.633656 50.037108 264.355339 10.959455l462.981623-267.316606c67.721683-39.105328 59.197662-107.49122-18.985318-152.629783L773.056709 37.372295z" fill="#6D8ACA" /><path d="M764.560364 56.966472c-73.50584-42.45405-184.871615-47.075841-248.525015-10.322921l-435.250881 251.292555c-63.6534 36.75292-55.655212 101.07053 17.850627 143.496904l399.549626 230.674388c73.50584 42.45405 184.871615 47.075841 248.525015 10.322921l435.250882-251.292554c63.6534-36.75292 55.655212-101.042854-17.850628-143.496905L764.560364 56.966472z" fill="#293D6B" /><path d="M757.309411 73.710084c-69.492908-40.129318-174.797772-44.502029-234.991748-9.741738l-411.533071 237.593236c-60.193976 34.760292-52.638595 95.563127 16.854313 135.692444l377.796769 218.10976c69.520583 40.129318 174.825448 44.502029 234.991749 9.741738l411.560746-237.593236c60.193976-34.760292 52.638595-95.563127-16.881989-135.692444L757.309411 73.710084z" fill="#334C85" /><path d="M748.647014 93.691717c-64.705065-37.361778-162.786652-41.430061-218.82932-9.077529L146.568873 305.906618c-56.070343 32.352533-49.013118 88.976383 15.691947 126.338162l351.837251 203.137373c64.732741 37.361778 162.786652 41.430061 218.856996 9.077529l383.248821-221.29243c56.042668-32.352533 49.013118-88.976383-15.719623-126.338162l-351.837251-203.137373z" fill="#3C599D" /><path d="M740.150669 113.36892c-60.027924-34.64959-150.96926-38.441119-202.971321-8.413319L181.771971 310.168629c-52.002061 30.000124-45.470668 82.500342 14.557256 117.149932l326.292865 188.386389c60.027924 34.677265 150.96926 38.441119 202.943645 8.413319l355.435053-205.213027c51.974385-30.000124 45.442993-82.500342-14.584932-117.149932L740.150669 113.36892z" fill="#486AB9" /><path d="M731.239193 133.931736c-55.12938-31.799025-138.59836-35.258449-186.338411-7.721434l-326.292865 188.414065c-47.74005 27.537014-41.73449 75.747546 13.367214 107.574246l299.558437 172.943521c55.101704 31.799025 138.59836 35.258449 186.310735 7.721434l326.320541-188.414065c47.712375-27.537014 41.73449-75.747546-13.39489-107.546571l-299.530761-172.971196z" fill="#5272BC" /><path d="M724.098942 150.398594c-51.171799-29.529643-128.69057-32.739988-173.026548-7.167927L248.082209 318.166817c-44.335977 25.599737-38.773223 70.350845 12.426251 99.908163l278.137684 160.600296c51.199474 29.529643 128.718246 32.739988 173.026547 7.167927l303.017861-174.93615c44.308302-25.599737 38.745548-70.350845-12.426251-99.908163L724.098942 150.398594z" fill="#5D7BC1" /><path d="M716.377507 168.249221c-46.909788-27.094208-117.980194-30.0278-158.607668-6.586743l-277.777904 160.378893c-40.627475 23.441057-35.507527 64.483662 11.402261 91.577871l255.001057 147.205407c46.909788 27.094208 117.980194 30.0278 158.607669 6.586743l277.750228-160.378893c40.627475-23.441057 35.535203-64.483662-11.374586-91.577871l-255.001057-147.205407z" fill="#92B3E1" /><path d="M631.38638 329.264649m-51.891359 0a51.891359 51.891359 0 1 0 103.782718 0 51.891359 51.891359 0 1 0-103.782718 0Z" fill="#4E6FBB" /><path d="M162.371522 620.797222c14.667957 8.46867 26.596051 29.114512 26.596051 46.079527s-11.928094 23.828512-26.596051 15.359842c-14.695633-8.46867-26.596051-29.114512-26.596052-46.079527s11.900418-23.828512 26.596052-15.359842zM279.521454 688.435879c14.667957 8.46867 26.596051 29.114512 26.596051 46.079527s-11.928094 23.828512-26.596051 15.359842c-14.695633-8.46867-26.596051-29.114512-26.596052-46.079527s11.900418-23.828512 26.596052-15.359842zM411.726798 764.764608c14.667957 8.46867 26.596051 29.114512 26.596052 46.079527 0 16.93734-11.928094 23.828512-26.596052 15.359842-14.695633-8.496345-26.623727-29.142187-26.623726-46.079526 0-16.965015 11.928094-23.856187 26.623726-15.359843z" fill="#60E000" /></svg>