<?xml version="1.0" encoding="utf-8"?>
<!-- Uploaded to: SVG Repo, www.svgrepo.com, Generator: SVG Repo Mixer Tools -->
<svg width="800px" height="800px" viewBox="0 0 1024 1024" class="icon"  version="1.1" xmlns="http://www.w3.org/2000/svg"><path d="M479.151967 927.263476l-44.477075 25.680057-8.022791-52.651239 52.499866 26.971182z" fill="#6D8ACA" /><path d="M482.713694 710.977564c0-7.568671-4.612437-16.375043-10.284488-19.651833l-82.293718-47.513447c-5.680956-3.276789-10.284489 0.204799-10.284489 7.773471v207.969278c0 7.568671 4.603533 16.375043 10.284489 19.651833l82.293718 47.513447c5.672051 3.276789 10.284489-0.204799 10.284488-7.773471V710.977564zM343.378908 666.375829l-5.102175 2.956234 3.998039 2.306219 5.111079-2.94733-4.006943-2.315123z" fill="#6D8ACA" /><path d="M383.038745 643.518442l-6.054937 3.499397 3.971327 2.28841 6.054937-3.499397-3.971327-2.28841z" fill="#6D8ACA" /><path d="M438.227716 736.65762c0-7.568671-4.603533-16.375043-10.284489-19.651832l-82.293718-47.513447c-5.672051-3.276789-10.284489 0.204799-10.284489 7.782375v207.960374c0 7.568671 4.612437 16.375043 10.284489 19.651832l82.293718 47.513447c5.680956 3.276789 10.284489-0.204799 10.284489-7.77347V736.65762z" fill="#4762AF" /><path d="M395.950008 647.756897c-5.600817-3.241172-14.095537-3.588441-18.948391-0.792484l-35.180965 20.319656 89.604164 51.725191 43.969528-25.386214-79.444336-45.866149zM636.607043 822.468544c0-10.070785-6.135076-21.788869-13.694843-26.151985-7.550863-4.363116-13.685939 0.276034-13.685939 10.346819v138.9519c0 10.079689 6.135076 21.797773 13.685939 26.16089 7.559767 4.363116 13.694843-0.276034 13.694843-10.346819V822.468544z" fill="#6D8ACA" /><path d="M606.893329 800.145416c5.600817-3.232268 13.953068-3.659675 18.645645-0.952762 4.692576 2.706913 3.953518 7.533054-1.647299 10.765322-5.609721 3.241172-13.961972 3.66858-18.654549 0.961666-4.692576-2.715817-3.953518-7.541958 1.656203-10.774226z" fill="#6D8ACA" /><path d="M614.248297 795.435031l-13.881833 8.013887 8.094026 4.665864 13.881833-8.013888-8.094026-4.665863zM624.203326 967.582234l-13.917451 8.0406 8.094026 4.665863 13.908547-8.031696-8.085122-4.674767z" fill="#6D8ACA" /><path d="M622.9122 830.375579c0-10.070785-6.126172-21.797773-13.685939-26.160889-7.559767-4.363116-13.694843 0.276034-13.694843 10.355723v138.951901c0 10.070785 6.135076 21.797773 13.694843 26.160889 7.559767 4.363116 13.685939-0.276034 13.685939-10.355723V830.375579z" fill="#4762AF" /><path d="M572.674031 857.970065c0-8.343347-6.135076-17.105197-13.694843-19.544981-7.550863-2.439783-13.685939 2.35074-13.685939 10.694087v67.939956c0 8.343347 6.135076 17.105197 13.685939 19.54498 7.559767 2.439783 13.694843-2.35074 13.694843-10.694087v-67.939955z" fill="#6D8ACA" /><path d="M543.957602 841.461457c5.119984-1.656203 12.661942-1.905524 16.829163-0.552068 4.176126 1.344552 3.410354 3.784336-1.70963 5.431635-5.119984 1.656203-12.670846 1.905524-16.838067 0.560972-4.176126-1.353457-3.40145-3.784336 1.718534-5.440539z" fill="#6D8ACA" /><path d="M551.82902 838.425084l-13.87293 4.487777 6.562484 2.119228 13.881833-4.487777-6.571387-2.119228zM560.26141 934.262271l-13.908547 4.487777 6.598101 2.137037 13.908546-4.496681-6.5981-2.128133z" fill="#6D8ACA" /><path d="M558.979188 862.386607c0-8.343347-6.135076-17.096293-13.685939-19.536076-7.559767-2.439783-13.694843 2.35074-13.694842 10.694087v67.939955c0 8.343347 6.135076 17.096293 13.694842 19.536077 7.550863 2.448688 13.685939-2.35074 13.685939-10.694088v-67.939955z" fill="#4762AF" /><path d="M700.540054 931.795775c0-8.343347-6.135076-17.105197-13.685938-19.544981-7.559767-2.439783-13.694843 2.35074-13.694843 10.702992v67.931051c0 8.343347 6.135076 17.105197 13.694843 19.544981 7.550863 2.439783 13.685939-2.35074 13.685938-10.694088v-67.939955z" fill="#6D8ACA" /><path d="M671.823625 915.287167c5.119984-1.656203 12.670846-1.905524 16.838067-0.552068 4.176126 1.344552 3.40145 3.784336-1.709629 5.440539-5.119984 1.647299-12.670846 1.89662-16.838067 0.552068-4.176126-1.344552-3.410354-3.784336 1.709629-5.440539z" fill="#6D8ACA" /><path d="M679.703947 912.250794l-13.881833 4.487777 6.571387 2.119228 13.881834-4.478872-6.571388-2.128133zM688.136338 1008.087982l-13.908547 4.487776 6.598101 2.137037 13.908546-4.496681-6.5981-2.128132z" fill="#6D8ACA" /><path d="M686.854116 936.221222c0-8.352251-6.135076-17.105197-13.694843-19.544981-7.550863-2.439783-13.685939 2.35074-13.685939 10.694087v67.939956c0 8.343347 6.135076 17.105197 13.685939 19.54498 7.559767 2.439783 13.694843-2.35074 13.694843-10.702991v-67.931051z" fill="#4762AF" /><path d="M341.517905 648.985694c-1.807577-1.05071-4.398734-3.321311-4.70148-5.859042-0.258225-2.181558 1.406882-4.57682 4.113795-6.375493l91.402836-60.567179c2.297314-1.522639 4.612437-2.110324 6.571388-2.030185a7.835801 7.835801 0 0 1 1.326743 0.160278c2.199367 0.463025 3.739814 1.843194 5.289166 4.656959l96.25569 174.92535c1.531543 2.787052 0.471929 5.520678-0.84591 6.428919-2.297314 1.576064-6.393301-0.071235-6.393301-0.071235S375.363222 668.52177 341.517905 648.985694z" fill="#6D8ACA" /><path d="M495.624957 769.692644l44.218849-8.868702-64.841252-38.894066 20.622403 47.762768zM392.272524 583.254009l44.779821-8.984458 2.608966 9.037884-33.328867 13.828408-14.05992-13.881834z" fill="#6D8ACA" /><path d="M297.227821 657.872204c-1.816481-1.041805-4.407638-3.312407-4.710384-5.850138-0.258225-2.190463 1.406882-4.585724 4.122699-6.375492l91.393932-60.567179c2.849382-1.887716 5.707669-2.341836 7.907036-1.878812 2.199367 0.471929 3.739814 1.852098 5.289165 4.665864l96.246786 174.916446c1.540447 2.787052 0.480833 5.520678-0.837006 6.428918-2.297314 1.584969-6.393301-0.06233-6.393301-0.06233S331.064234 677.40828 297.227821 657.872204z" fill="#4762AF" /><path d="M333.619774 138.536692c59.676747 34.450811 108.125148 118.365115 108.125148 187.266737 0 68.910526-48.448401 96.878993-108.125148 62.428182-59.667843-34.459715-108.116243-118.365115-108.116244-187.275641 0-68.901622 48.448401-96.870088 108.116244-62.419278zM743.610246 309.000979c75.936034 43.844868 137.580636 150.625463 137.580636 238.306294 0 87.680831-61.644602 123.271395-137.580636 79.435431C667.674212 582.897837 606.029611 476.117241 606.029611 388.43641c0-87.680831 61.644602-123.271395 137.580635-79.435431z" fill="#6D8ACA" /><path d="M416.563507 66.518559c45.777105 26.428019 82.943733 90.797343 82.943733 143.662285 0 52.856039-37.166628 74.315448-82.943733 47.878525-45.777105-26.428019-82.943733-90.797343-82.943733-143.653382s37.166628-74.315448 82.943733-47.887428z" fill="#6D8ACA" /><path d="M606.029611 22.130528c89.541834 51.707381 162.2456 177.623359 162.245599 281.020313 0 103.396954-72.703766 145.371915-162.245599 93.673438-89.550738-51.698477-162.2456-177.614455-162.2456-281.020313 0-103.396954 72.694862-145.371915 162.2456-93.673438z" fill="#6D8ACA" /><path d="M768.27521 389.478215L333.619774 138.536692V388.231611l434.655436 250.941523V389.478215z" fill="#6D8ACA" /><path d="M846.722262 590.885011l-87.484936 50.505298v41.66331l87.484936-50.514203v-41.654405zM493.75505 9.406256L401.515208 62.662989V86.998493l92.239842-53.247829V9.406256zM360.973842 59.136878l-90.530213 52.277258v56.827365l90.530213-52.268353V59.136878zM256.259049 131.992018l-82.997159 47.914141v38.876258l82.997159-47.914142v-38.876257z" fill="#6D8ACA" /><path d="M246.134838 189.041991c59.676747 34.450811 108.125148 118.365115 108.125148 187.275641 0 68.901622-48.448401 96.870088-108.125148 62.419277C186.466995 404.286098 138.018595 320.371794 138.018595 251.470172c0-68.910526 48.448401-96.878993 108.116243-62.428181zM656.12531 359.515181c75.936034 43.835963 137.58954 150.616559 137.58954 238.29739 0 87.680831-61.653506 123.280299-137.58954 79.435432-75.936034-43.835963-137.580636-150.616559-137.580635-238.29739 0-87.689735 61.644602-123.280299 137.580635-79.435432z" fill="#4762AF" /><path d="M329.078571 117.023857c45.777105 26.428019 82.943733 90.806247 82.943733 143.662286s-37.166628 74.315448-82.943733 47.887428c-45.777105-26.428019-82.943733-90.806247-82.943733-143.662285s37.166628-74.315448 82.943733-47.887429z" fill="#4762AF" /><path d="M518.544675 72.64473c89.541834 51.698477 162.2456 177.614455 162.245599 281.020314 0 103.396954-72.703766 145.371915-162.245599 93.664533-89.550738-51.698477-162.2456-177.614455-162.2456-281.011409 0-103.396954 72.694862-145.371915 162.2456-93.673438z" fill="#4762AF" /><path d="M680.790274 439.992418L246.134838 189.041991v249.694918l434.655436 250.941523V439.992418z" fill="#4762AF" /></svg>